<svg width="320" height="134" viewBox="0 0 320 134" fill="none" xmlns="http://www.w3.org/2000/svg">
    <rect width="320" height="134" fill="#F1F1F8"/>
    <path d="M20 88C20 85.7909 21.7909 84 24 84H65C67.2091 84 69 85.7909 69 88V134H20V88Z" fill="#D9D9D9"/>
    <path d="M31.577 111.727L29.759 118H28.841L27.383 112.951L25.871 118L24.962 118.009L23.207 111.727H24.08L25.448 117.046L26.96 111.727H27.878L29.318 117.028L30.695 111.727H31.577ZM36.9733 115.345C36.9733 115.501 36.9643 115.666 36.9463 115.84H33.0043C33.0343 116.326 33.1993 116.707 33.4993 116.983C33.8053 117.253 34.1743 117.388 34.6063 117.388C34.9603 117.388 35.2543 117.307 35.4883 117.145C35.7283 116.977 35.8963 116.755 35.9923 116.479H36.8743C36.7423 116.953 36.4783 117.34 36.0823 117.64C35.6863 117.934 35.1943 118.081 34.6063 118.081C34.1383 118.081 33.7183 117.976 33.3463 117.766C32.9803 117.556 32.6923 117.259 32.4823 116.875C32.2723 116.485 32.1673 116.035 32.1673 115.525C32.1673 115.015 32.2693 114.568 32.4733 114.184C32.6773 113.8 32.9623 113.506 33.3283 113.302C33.7003 113.092 34.1263 112.987 34.6063 112.987C35.0743 112.987 35.4883 113.089 35.8483 113.293C36.2083 113.497 36.4843 113.779 36.6763 114.139C36.8743 114.493 36.9733 114.895 36.9733 115.345ZM36.1273 115.174C36.1273 114.862 36.0583 114.595 35.9203 114.373C35.7823 114.145 35.5933 113.974 35.3533 113.86C35.1193 113.74 34.8583 113.68 34.5703 113.68C34.1563 113.68 33.8023 113.812 33.5083 114.076C33.2203 114.34 33.0553 114.706 33.0133 115.174H36.1273ZM38.8733 111.34V118H38.0543V111.34H38.8733ZM39.9632 115.525C39.9632 115.015 40.0652 114.571 40.2692 114.193C40.4732 113.809 40.7552 113.512 41.1152 113.302C41.4812 113.092 41.8982 112.987 42.3662 112.987C42.9722 112.987 43.4702 113.134 43.8602 113.428C44.2562 113.722 44.5172 114.13 44.6432 114.652H43.7612C43.6772 114.352 43.5122 114.115 43.2662 113.941C43.0262 113.767 42.7262 113.68 42.3662 113.68C41.8982 113.68 41.5202 113.842 41.2322 114.166C40.9442 114.484 40.8002 114.937 40.8002 115.525C40.8002 116.119 40.9442 116.578 41.2322 116.902C41.5202 117.226 41.8982 117.388 42.3662 117.388C42.7262 117.388 43.0262 117.304 43.2662 117.136C43.5062 116.968 43.6712 116.728 43.7612 116.416H44.6432C44.5112 116.92 44.2472 117.325 43.8512 117.631C43.4552 117.931 42.9602 118.081 42.3662 118.081C41.8982 118.081 41.4812 117.976 41.1152 117.766C40.7552 117.556 40.4732 117.259 40.2692 116.875C40.0652 116.491 39.9632 116.041 39.9632 115.525ZM47.887 118.081C47.425 118.081 47.005 117.976 46.627 117.766C46.255 117.556 45.961 117.259 45.745 116.875C45.535 116.485 45.43 116.035 45.43 115.525C45.43 115.021 45.538 114.577 45.754 114.193C45.976 113.803 46.276 113.506 46.654 113.302C47.032 113.092 47.455 112.987 47.923 112.987C48.391 112.987 48.814 113.092 49.192 113.302C49.57 113.506 49.867 113.8 50.083 114.184C50.305 114.568 50.416 115.015 50.416 115.525C50.416 116.035 50.302 116.485 50.074 116.875C49.852 117.259 49.549 117.556 49.165 117.766C48.781 117.976 48.355 118.081 47.887 118.081ZM47.887 117.361C48.181 117.361 48.457 117.292 48.715 117.154C48.973 117.016 49.18 116.809 49.336 116.533C49.498 116.257 49.579 115.921 49.579 115.525C49.579 115.129 49.501 114.793 49.345 114.517C49.189 114.241 48.985 114.037 48.733 113.905C48.481 113.767 48.208 113.698 47.914 113.698C47.614 113.698 47.338 113.767 47.086 113.905C46.84 114.037 46.642 114.241 46.492 114.517C46.342 114.793 46.267 115.129 46.267 115.525C46.267 115.927 46.339 116.266 46.483 116.542C46.633 116.818 46.831 117.025 47.077 117.163C47.323 117.295 47.593 117.361 47.887 117.361ZM57.4238 112.978C57.8078 112.978 58.1498 113.059 58.4498 113.221C58.7498 113.377 58.9868 113.614 59.1608 113.932C59.3348 114.25 59.4218 114.637 59.4218 115.093V118H58.6118V115.21C58.6118 114.718 58.4888 114.343 58.2428 114.085C58.0028 113.821 57.6758 113.689 57.2618 113.689C56.8358 113.689 56.4968 113.827 56.2448 114.103C55.9928 114.373 55.8668 114.766 55.8668 115.282V118H55.0568V115.21C55.0568 114.718 54.9338 114.343 54.6878 114.085C54.4478 113.821 54.1208 113.689 53.7068 113.689C53.2808 113.689 52.9418 113.827 52.6898 114.103C52.4378 114.373 52.3118 114.766 52.3118 115.282V118H51.4928V113.068H52.3118V113.779C52.4738 113.521 52.6898 113.323 52.9598 113.185C53.2358 113.047 53.5388 112.978 53.8688 112.978C54.2828 112.978 54.6488 113.071 54.9668 113.257C55.2848 113.443 55.5218 113.716 55.6778 114.076C55.8158 113.728 56.0438 113.458 56.3618 113.266C56.6798 113.074 57.0338 112.978 57.4238 112.978ZM65.2653 115.345C65.2653 115.501 65.2563 115.666 65.2383 115.84H61.2963C61.3263 116.326 61.4913 116.707 61.7913 116.983C62.0973 117.253 62.4663 117.388 62.8983 117.388C63.2523 117.388 63.5463 117.307 63.7803 117.145C64.0203 116.977 64.1883 116.755 64.2843 116.479H65.1663C65.0343 116.953 64.7703 117.34 64.3743 117.64C63.9783 117.934 63.4863 118.081 62.8983 118.081C62.4303 118.081 62.0103 117.976 61.6383 117.766C61.2723 117.556 60.9843 117.259 60.7743 116.875C60.5643 116.485 60.4593 116.035 60.4593 115.525C60.4593 115.015 60.5613 114.568 60.7653 114.184C60.9693 113.8 61.2543 113.506 61.6203 113.302C61.9923 113.092 62.4183 112.987 62.8983 112.987C63.3663 112.987 63.7803 113.089 64.1403 113.293C64.5003 113.497 64.7763 113.779 64.9683 114.139C65.1663 114.493 65.2653 114.895 65.2653 115.345ZM64.4193 115.174C64.4193 114.862 64.3503 114.595 64.2123 114.373C64.0743 114.145 63.8853 113.974 63.6453 113.86C63.4113 113.74 63.1503 113.68 62.8623 113.68C62.4483 113.68 62.0943 113.812 61.8003 114.076C61.5123 114.34 61.3473 114.706 61.3053 115.174H64.4193Z" fill="#666666"/>
    <g clip-path="url(#clip0_2228_29781)">
        <path d="M102.251 63.7604C109.85 63.7604 116.011 57.5996 116.011 50C116.011 42.4003 109.85 36.2396 102.251 36.2396C94.651 36.2396 88.4902 42.4003 88.4902 50C88.4902 57.5996 94.651 63.7604 102.251 63.7604Z" stroke="#999999" stroke-width="2.4792"/>
        <path d="M102.25 61.0328C108.343 61.0328 113.282 56.0932 113.282 50C113.282 43.9067 108.343 38.9672 102.25 38.9672C96.1564 38.9672 91.2168 43.9067 91.2168 50C91.2168 56.0932 96.1564 61.0328 102.25 61.0328Z" fill="#999999"/>
        <path d="M99.2431 51.9776C99.4951 52.646 99.7909 53.1788 100.13 53.5754C100.72 54.2684 101.454 54.6146 102.331 54.6146C102.805 54.6146 103.215 54.4646 103.558 54.1646C103.907 53.864 104.082 53.4446 104.082 52.9076C104.082 52.4234 103.907 52.0016 103.558 51.6434C103.33 51.4154 102.852 51.0746 102.12 50.6192L100.849 49.8272C100.467 49.5854 100.161 49.3412 99.9337 49.094C99.5125 48.6242 99.3019 48.1064 99.3019 47.54C99.3019 46.7888 99.5509 46.1642 100.05 45.6656C100.548 45.167 101.21 44.9174 102.033 44.9174C102.372 44.9174 102.778 45.002 103.254 45.1718C103.733 45.3362 104.007 45.4184 104.074 45.4184C104.258 45.4184 104.384 45.3752 104.452 45.2876C104.524 45.2006 104.58 45.0776 104.619 44.9174H104.924L105.251 48.0842H104.895C104.653 47.1302 104.263 46.4642 103.725 46.0868C103.193 45.7088 102.665 45.5204 102.142 45.5204C101.754 45.5137 101.377 45.642 101.074 45.8834C100.774 46.121 100.624 46.4522 100.624 46.8788C100.624 47.261 100.74 47.588 100.972 47.8592C101.205 48.1352 101.566 48.4232 102.055 48.7232L103.362 49.5296C104.181 50.0336 104.757 50.4956 105.091 50.9174C105.421 51.3434 105.585 51.8474 105.585 52.4282C105.585 53.2082 105.289 53.8592 104.699 54.3818C104.113 54.905 103.362 55.1666 102.447 55.1666C101.987 55.1666 101.505 55.079 101.001 54.905C100.503 54.731 100.217 54.6434 100.144 54.6434C99.9703 54.6434 99.8515 54.6968 99.7885 54.803C99.7304 54.9094 99.691 55.0251 99.6721 55.145H99.3451L98.9023 51.9776H99.2431Z" fill="white"/>
    </g>
    <g clip-path="url(#clip1_2228_29781)">
        <path d="M78 78C78 75.7909 79.7909 74 82 74H123C125.209 74 127 75.7909 127 78V134H78V78Z" fill="white"/>
        <path d="M88.72 119.084C88.136 119.084 87.608 118.984 87.136 118.784C86.672 118.584 86.304 118.296 86.032 117.92C85.76 117.544 85.62 117.1 85.612 116.588H87.412C87.436 116.932 87.556 117.204 87.772 117.404C87.996 117.604 88.3 117.704 88.684 117.704C89.076 117.704 89.384 117.612 89.608 117.428C89.832 117.236 89.944 116.988 89.944 116.684C89.944 116.436 89.868 116.232 89.716 116.072C89.564 115.912 89.372 115.788 89.14 115.7C88.916 115.604 88.604 115.5 88.204 115.388C87.66 115.228 87.216 115.072 86.872 114.92C86.536 114.76 86.244 114.524 85.996 114.212C85.756 113.892 85.636 113.468 85.636 112.94C85.636 112.444 85.76 112.012 86.008 111.644C86.256 111.276 86.604 110.996 87.052 110.804C87.5 110.604 88.012 110.504 88.588 110.504C89.452 110.504 90.152 110.716 90.688 111.14C91.232 111.556 91.532 112.14 91.588 112.892H89.74C89.724 112.604 89.6 112.368 89.368 112.184C89.144 111.992 88.844 111.896 88.468 111.896C88.14 111.896 87.876 111.98 87.676 112.148C87.484 112.316 87.388 112.56 87.388 112.88C87.388 113.104 87.46 113.292 87.604 113.444C87.756 113.588 87.94 113.708 88.156 113.804C88.38 113.892 88.692 113.996 89.092 114.116C89.636 114.276 90.08 114.436 90.424 114.596C90.768 114.756 91.064 114.996 91.312 115.316C91.56 115.636 91.684 116.056 91.684 116.576C91.684 117.024 91.568 117.44 91.336 117.824C91.104 118.208 90.764 118.516 90.316 118.748C89.868 118.972 89.336 119.084 88.72 119.084ZM93.9925 111.56C93.6965 111.56 93.4485 111.468 93.2485 111.284C93.0565 111.092 92.9605 110.856 92.9605 110.576C92.9605 110.296 93.0565 110.064 93.2485 109.88C93.4485 109.688 93.6965 109.592 93.9925 109.592C94.2885 109.592 94.5325 109.688 94.7245 109.88C94.9245 110.064 95.0245 110.296 95.0245 110.576C95.0245 110.856 94.9245 111.092 94.7245 111.284C94.5325 111.468 94.2885 111.56 93.9925 111.56ZM94.8205 112.352V119H93.1405V112.352H94.8205ZM98.1603 110.12V119H96.4803V110.12H98.1603ZM102.592 117.452L104.272 112.352H106.06L103.6 119H101.56L99.1122 112.352H100.912L102.592 117.452ZM113.184 115.532C113.184 115.772 113.168 115.988 113.136 116.18H108.276C108.316 116.66 108.484 117.036 108.78 117.308C109.076 117.58 109.44 117.716 109.872 117.716C110.496 117.716 110.94 117.448 111.204 116.912H113.016C112.824 117.552 112.456 118.08 111.912 118.496C111.368 118.904 110.7 119.108 109.908 119.108C109.268 119.108 108.692 118.968 108.18 118.688C107.676 118.4 107.28 117.996 106.992 117.476C106.712 116.956 106.572 116.356 106.572 115.676C106.572 114.988 106.712 114.384 106.992 113.864C107.272 113.344 107.664 112.944 108.168 112.664C108.672 112.384 109.252 112.244 109.908 112.244C110.54 112.244 111.104 112.38 111.6 112.652C112.104 112.924 112.492 113.312 112.764 113.816C113.044 114.312 113.184 114.884 113.184 115.532ZM111.444 115.052C111.436 114.62 111.28 114.276 110.976 114.02C110.672 113.756 110.3 113.624 109.86 113.624C109.444 113.624 109.092 113.752 108.804 114.008C108.524 114.256 108.352 114.604 108.288 115.052H111.444ZM116.09 113.384C116.306 113.032 116.586 112.756 116.93 112.556C117.282 112.356 117.682 112.256 118.13 112.256V114.02H117.686C117.158 114.02 116.758 114.144 116.486 114.392C116.222 114.64 116.09 115.072 116.09 115.688V119H114.41V112.352H116.09V113.384Z" fill="#666666"/>
    </g>
    <g clip-path="url(#clip2_2228_29781)">
        <path d="M135.5 63C135.5 60.7909 137.291 59 139.5 59H180.5C182.709 59 184.5 60.7909 184.5 63V134H135.5V63Z" fill="#D9D9D9"/>
        <path d="M152.76 113.06C152.528 112.572 152.192 112.196 151.752 111.932C151.312 111.66 150.8 111.524 150.216 111.524C149.632 111.524 149.104 111.66 148.632 111.932C148.168 112.196 147.8 112.58 147.528 113.084C147.264 113.58 147.132 114.156 147.132 114.812C147.132 115.468 147.264 116.044 147.528 116.54C147.8 117.036 148.168 117.42 148.632 117.692C149.104 117.956 149.632 118.088 150.216 118.088C151.032 118.088 151.704 117.844 152.232 117.356C152.76 116.868 153.068 116.208 153.156 115.376H149.82V114.488H154.32V115.328C154.256 116.016 154.04 116.648 153.672 117.224C153.304 117.792 152.82 118.244 152.22 118.58C151.62 118.908 150.952 119.072 150.216 119.072C149.44 119.072 148.732 118.892 148.092 118.532C147.452 118.164 146.944 117.656 146.568 117.008C146.2 116.36 146.016 115.628 146.016 114.812C146.016 113.996 146.2 113.264 146.568 112.616C146.944 111.96 147.452 111.452 148.092 111.092C148.732 110.724 149.44 110.54 150.216 110.54C151.104 110.54 151.888 110.76 152.568 111.2C153.256 111.64 153.756 112.26 154.068 113.06H152.76ZM158.632 119.108C158.016 119.108 157.456 118.968 156.952 118.688C156.456 118.408 156.064 118.012 155.776 117.5C155.496 116.98 155.356 116.38 155.356 115.7C155.356 115.028 155.5 114.436 155.788 113.924C156.084 113.404 156.484 113.008 156.988 112.736C157.492 112.456 158.056 112.316 158.68 112.316C159.304 112.316 159.868 112.456 160.372 112.736C160.876 113.008 161.272 113.4 161.56 113.912C161.856 114.424 162.004 115.02 162.004 115.7C162.004 116.38 161.852 116.98 161.548 117.5C161.252 118.012 160.848 118.408 160.336 118.688C159.824 118.968 159.256 119.108 158.632 119.108ZM158.632 118.148C159.024 118.148 159.392 118.056 159.736 117.872C160.08 117.688 160.356 117.412 160.564 117.044C160.78 116.676 160.888 116.228 160.888 115.7C160.888 115.172 160.784 114.724 160.576 114.356C160.368 113.988 160.096 113.716 159.76 113.54C159.424 113.356 159.06 113.264 158.668 113.264C158.268 113.264 157.9 113.356 157.564 113.54C157.236 113.716 156.972 113.988 156.772 114.356C156.572 114.724 156.472 115.172 156.472 115.7C156.472 116.236 156.568 116.688 156.76 117.056C156.96 117.424 157.224 117.7 157.552 117.884C157.88 118.06 158.24 118.148 158.632 118.148ZM164.532 110.12V119H163.44V110.12H164.532ZM165.985 115.688C165.985 115.016 166.121 114.428 166.393 113.924C166.665 113.412 167.037 113.016 167.509 112.736C167.989 112.456 168.525 112.316 169.117 112.316C169.629 112.316 170.105 112.436 170.545 112.676C170.985 112.908 171.321 113.216 171.553 113.6V110.12H172.657V119H171.553V117.764C171.337 118.156 171.017 118.48 170.593 118.736C170.169 118.984 169.673 119.108 169.105 119.108C168.521 119.108 167.989 118.964 167.509 118.676C167.037 118.388 166.665 117.984 166.393 117.464C166.121 116.944 165.985 116.352 165.985 115.688ZM171.553 115.7C171.553 115.204 171.453 114.772 171.253 114.404C171.053 114.036 170.781 113.756 170.437 113.564C170.101 113.364 169.729 113.264 169.321 113.264C168.913 113.264 168.541 113.36 168.205 113.552C167.869 113.744 167.601 114.024 167.401 114.392C167.201 114.76 167.101 115.192 167.101 115.688C167.101 116.192 167.201 116.632 167.401 117.008C167.601 117.376 167.869 117.66 168.205 117.86C168.541 118.052 168.913 118.148 169.321 118.148C169.729 118.148 170.101 118.052 170.437 117.86C170.781 117.66 171.053 117.376 171.253 117.008C171.453 116.632 171.553 116.196 171.553 115.7Z" fill="#666666"/>
    </g>
    <g clip-path="url(#clip3_2228_29781)">
        <path d="M193.25 48C193.25 45.7909 195.041 44 197.25 44H238.25C240.459 44 242.25 45.7909 242.25 48V134H193.25V48Z" fill="#D9D9D9"/>
        <path d="M202.137 113.563C202.137 114.085 201.957 114.52 201.597 114.868C201.243 115.21 200.7 115.381 199.968 115.381H198.762V118H197.943V111.727H199.968C200.676 111.727 201.213 111.898 201.579 112.24C201.951 112.582 202.137 113.023 202.137 113.563ZM199.968 114.706C200.424 114.706 200.76 114.607 200.976 114.409C201.192 114.211 201.3 113.929 201.3 113.563C201.3 112.789 200.856 112.402 199.968 112.402H198.762V114.706H199.968ZM203.974 111.34V118H203.155V111.34H203.974ZM205.064 115.516C205.064 115.012 205.166 114.571 205.37 114.193C205.574 113.809 205.853 113.512 206.207 113.302C206.567 113.092 206.966 112.987 207.404 112.987C207.836 112.987 208.211 113.08 208.529 113.266C208.847 113.452 209.084 113.686 209.24 113.968V113.068H210.068V118H209.24V117.082C209.078 117.37 208.835 117.61 208.511 117.802C208.193 117.988 207.821 118.081 207.395 118.081C206.957 118.081 206.561 117.973 206.207 117.757C205.853 117.541 205.574 117.238 205.37 116.848C205.166 116.458 205.064 116.014 205.064 115.516ZM209.24 115.525C209.24 115.153 209.165 114.829 209.015 114.553C208.865 114.277 208.661 114.067 208.403 113.923C208.151 113.773 207.872 113.698 207.566 113.698C207.26 113.698 206.981 113.77 206.729 113.914C206.477 114.058 206.276 114.268 206.126 114.544C205.976 114.82 205.901 115.144 205.901 115.516C205.901 115.894 205.976 116.224 206.126 116.506C206.276 116.782 206.477 116.995 206.729 117.145C206.981 117.289 207.26 117.361 207.566 117.361C207.872 117.361 208.151 117.289 208.403 117.145C208.661 116.995 208.865 116.782 209.015 116.506C209.165 116.224 209.24 115.897 209.24 115.525ZM212.451 113.743V116.65C212.451 116.89 212.502 117.061 212.604 117.163C212.706 117.259 212.883 117.307 213.135 117.307H213.738V118H213C212.544 118 212.202 117.895 211.974 117.685C211.746 117.475 211.632 117.13 211.632 116.65V113.743H210.993V113.068H211.632V111.826H212.451V113.068H213.738V113.743H212.451ZM215.153 112.267C214.997 112.267 214.865 112.213 214.757 112.105C214.649 111.997 214.595 111.865 214.595 111.709C214.595 111.553 214.649 111.421 214.757 111.313C214.865 111.205 214.997 111.151 215.153 111.151C215.303 111.151 215.429 111.205 215.531 111.313C215.639 111.421 215.693 111.553 215.693 111.709C215.693 111.865 215.639 111.997 215.531 112.105C215.429 112.213 215.303 112.267 215.153 112.267ZM215.549 113.068V118H214.73V113.068H215.549ZM219.348 112.978C219.948 112.978 220.434 113.161 220.806 113.527C221.178 113.887 221.364 114.409 221.364 115.093V118H220.554V115.21C220.554 114.718 220.431 114.343 220.185 114.085C219.939 113.821 219.603 113.689 219.177 113.689C218.745 113.689 218.4 113.824 218.142 114.094C217.89 114.364 217.764 114.757 217.764 115.273V118H216.945V113.068H217.764V113.77C217.926 113.518 218.145 113.323 218.421 113.185C218.703 113.047 219.012 112.978 219.348 112.978ZM227.076 113.068V118H226.257V117.271C226.101 117.523 225.882 117.721 225.6 117.865C225.324 118.003 225.018 118.072 224.682 118.072C224.298 118.072 223.953 117.994 223.647 117.838C223.341 117.676 223.098 117.436 222.918 117.118C222.744 116.8 222.657 116.413 222.657 115.957V113.068H223.467V115.849C223.467 116.335 223.59 116.71 223.836 116.974C224.082 117.232 224.418 117.361 224.844 117.361C225.282 117.361 225.627 117.226 225.879 116.956C226.131 116.686 226.257 116.293 226.257 115.777V113.068H227.076ZM234.39 112.978C234.774 112.978 235.116 113.059 235.416 113.221C235.716 113.377 235.953 113.614 236.127 113.932C236.301 114.25 236.388 114.637 236.388 115.093V118H235.578V115.21C235.578 114.718 235.455 114.343 235.209 114.085C234.969 113.821 234.642 113.689 234.228 113.689C233.802 113.689 233.463 113.827 233.211 114.103C232.959 114.373 232.833 114.766 232.833 115.282V118H232.023V115.21C232.023 114.718 231.9 114.343 231.654 114.085C231.414 113.821 231.087 113.689 230.673 113.689C230.247 113.689 229.908 113.827 229.656 114.103C229.404 114.373 229.278 114.766 229.278 115.282V118H228.459V113.068H229.278V113.779C229.44 113.521 229.656 113.323 229.926 113.185C230.202 113.047 230.505 112.978 230.835 112.978C231.249 112.978 231.615 113.071 231.933 113.257C232.251 113.443 232.488 113.716 232.644 114.076C232.782 113.728 233.01 113.458 233.328 113.266C233.646 113.074 234 112.978 234.39 112.978Z" fill="#666666"/>
    </g>
    <g clip-path="url(#clip4_2228_29781)">
        <path d="M251 28C251 25.7909 252.791 24 255 24H296C298.209 24 300 25.7909 300 28V134H251V28Z" fill="#D9D9D9"/>
        <path d="M273.836 110.636L270.68 119H269.42L266.264 110.636H267.428L270.056 117.848L272.684 110.636H273.836ZM275.597 111.356C275.389 111.356 275.213 111.284 275.069 111.14C274.925 110.996 274.853 110.82 274.853 110.612C274.853 110.404 274.925 110.228 275.069 110.084C275.213 109.94 275.389 109.868 275.597 109.868C275.797 109.868 275.965 109.94 276.101 110.084C276.245 110.228 276.317 110.404 276.317 110.612C276.317 110.82 276.245 110.996 276.101 111.14C275.965 111.284 275.797 111.356 275.597 111.356ZM276.125 112.424V119H275.033V112.424H276.125ZM279.079 113.636C279.295 113.26 279.615 112.948 280.039 112.7C280.471 112.444 280.971 112.316 281.539 112.316C282.123 112.316 282.651 112.456 283.122 112.736C283.602 113.016 283.979 113.412 284.251 113.924C284.523 114.428 284.659 115.016 284.659 115.688C284.659 116.352 284.523 116.944 284.251 117.464C283.979 117.984 283.602 118.388 283.122 118.676C282.651 118.964 282.123 119.108 281.539 119.108C280.979 119.108 280.483 118.984 280.051 118.736C279.627 118.48 279.303 118.164 279.079 117.788V122.12H277.987V112.424H279.079V113.636ZM283.543 115.688C283.543 115.192 283.443 114.76 283.243 114.392C283.043 114.024 282.771 113.744 282.427 113.552C282.091 113.36 281.719 113.264 281.311 113.264C280.911 113.264 280.539 113.364 280.195 113.564C279.859 113.756 279.587 114.04 279.379 114.416C279.179 114.784 279.079 115.212 279.079 115.7C279.079 116.196 279.179 116.632 279.379 117.008C279.587 117.376 279.859 117.66 280.195 117.86C280.539 118.052 280.911 118.148 281.311 118.148C281.719 118.148 282.091 118.052 282.427 117.86C282.771 117.66 283.043 117.376 283.243 117.008C283.443 116.632 283.543 116.192 283.543 115.688Z" fill="#666666"/>
    </g>
    <defs>
        <clipPath id="clip0_2228_29781">
            <rect width="30" height="30" fill="white" transform="translate(87.25 35)"/>
        </clipPath>
        <clipPath id="clip1_2228_29781">
            <rect width="49" height="60" fill="white" transform="translate(77.75 74)"/>
        </clipPath>
        <clipPath id="clip2_2228_29781">
            <rect width="49" height="75" fill="white" transform="translate(135.5 59)"/>
        </clipPath>
        <clipPath id="clip3_2228_29781">
            <rect width="49" height="90" fill="white" transform="translate(193.25 44)"/>
        </clipPath>
        <clipPath id="clip4_2228_29781">
            <rect width="49" height="110" fill="white" transform="translate(251 24)"/>
        </clipPath>
    </defs>
</svg>
