<svg width="320" height="134" viewBox="0 0 320 134" fill="none" xmlns="http://www.w3.org/2000/svg">
    <rect width="320" height="134" fill="#F1F1F8"/>
    <g clip-path="url(#clip0_2228_29750)">
        <path d="M44.5006 73.7604C52.1003 73.7604 58.261 67.5997 58.261 60C58.261 52.4004 52.1003 46.2396 44.5006 46.2396C36.901 46.2396 30.7402 52.4004 30.7402 60C30.7402 67.5997 36.901 73.7604 44.5006 73.7604Z" stroke="#EE447B" stroke-width="2.4792"/>
        <path d="M44.501 70.9092C50.526 70.9092 55.4102 66.025 55.4102 60C55.4102 53.975 50.526 49.0908 44.501 49.0908C38.476 49.0908 33.5918 53.975 33.5918 60C33.5918 66.025 38.476 70.9092 44.501 70.9092Z" fill="#EE447B" stroke="#EE447B" stroke-width="0.2478"/>
        <path d="M41.3278 54.9174V55.1934C41.0326 55.203 40.822 55.2294 40.696 55.2732C40.4728 55.3554 40.3618 55.506 40.3618 55.7232C40.3618 55.8204 40.3738 55.9152 40.3978 56.007C40.4272 56.0988 40.468 56.2176 40.5214 56.3628L42.6718 61.956L44.2552 57.7572L43.5508 55.9632C43.42 55.6338 43.2238 55.4136 42.9622 55.3026C42.8074 55.2348 42.5722 55.1982 42.2578 55.1934V54.9174H46.2382V55.1934C45.865 55.1982 45.6082 55.2246 45.4678 55.2732C45.2458 55.3554 45.1342 55.5252 45.1342 55.782C45.1342 55.869 45.1438 55.9464 45.163 56.0142C45.1822 56.0772 45.2308 56.2104 45.3082 56.4138L47.4586 61.992L49.318 56.9442C49.4242 56.658 49.4968 56.4042 49.5358 56.181C49.5598 56.055 49.5718 55.9536 49.5718 55.8762C49.5718 55.6002 49.4416 55.4088 49.18 55.3026C49.0348 55.2396 48.8164 55.203 48.526 55.1934V54.9174H51.475V55.1934C51.2086 55.2324 51.0052 55.2924 50.8648 55.3752C50.6128 55.5156 50.4244 55.7574 50.2984 56.1012L48.715 60.525L48.097 62.232L47.2042 64.9338H46.9792L46.3762 63.2124L44.6038 58.6362L42.3154 64.9338H42.0904L41.0224 61.8396L39.7444 58.3602C39.2164 56.9268 38.8486 56.0478 38.6404 55.7238C38.4364 55.3938 38.1172 55.2174 37.6816 55.1934V54.9174H41.3278Z" fill="white"/>
    </g>
    <g clip-path="url(#clip1_2228_29750)">
        <path d="M20 88C20 85.7909 21.7909 84 24 84H65C67.2091 84 69 85.7909 69 88V134H20V88Z" fill="#EE447B"/>
        <path d="M32.018 111.718L30.263 118H28.778L27.599 113.527L26.366 118L24.89 118.009L23.198 111.718H24.548L25.655 116.596L26.933 111.718H28.337L29.543 116.569L30.659 111.718H32.018ZM37.4757 115.399C37.4757 115.579 37.4637 115.741 37.4397 115.885H33.7947C33.8247 116.245 33.9507 116.527 34.1727 116.731C34.3947 116.935 34.6677 117.037 34.9917 117.037C35.4597 117.037 35.7927 116.836 35.9907 116.434H37.3497C37.2057 116.914 36.9297 117.31 36.5217 117.622C36.1137 117.928 35.6127 118.081 35.0187 118.081C34.5387 118.081 34.1067 117.976 33.7227 117.766C33.3447 117.55 33.0477 117.247 32.8317 116.857C32.6217 116.467 32.5167 116.017 32.5167 115.507C32.5167 114.991 32.6217 114.538 32.8317 114.148C33.0417 113.758 33.3357 113.458 33.7137 113.248C34.0917 113.038 34.5267 112.933 35.0187 112.933C35.4927 112.933 35.9157 113.035 36.2877 113.239C36.6657 113.443 36.9567 113.734 37.1607 114.112C37.3707 114.484 37.4757 114.913 37.4757 115.399ZM36.1707 115.039C36.1647 114.715 36.0477 114.457 35.8197 114.265C35.5917 114.067 35.3127 113.968 34.9827 113.968C34.6707 113.968 34.4067 114.064 34.1907 114.256C33.9807 114.442 33.8517 114.703 33.8037 115.039H36.1707ZM39.6554 111.34V118H38.3954V111.34H39.6554ZM40.5763 115.507C40.5763 114.991 40.6813 114.541 40.8913 114.157C41.1013 113.767 41.3923 113.467 41.7643 113.257C42.1363 113.041 42.5623 112.933 43.0423 112.933C43.6603 112.933 44.1703 113.089 44.5723 113.401C44.9803 113.707 45.2533 114.139 45.3913 114.697H44.0323C43.9603 114.481 43.8373 114.313 43.6633 114.193C43.4953 114.067 43.2853 114.004 43.0333 114.004C42.6733 114.004 42.3883 114.136 42.1783 114.4C41.9683 114.658 41.8633 115.027 41.8633 115.507C41.8633 115.981 41.9683 116.35 42.1783 116.614C42.3883 116.872 42.6733 117.001 43.0333 117.001C43.5433 117.001 43.8763 116.773 44.0323 116.317H45.3913C45.2533 116.857 44.9803 117.286 44.5723 117.604C44.1643 117.922 43.6543 118.081 43.0423 118.081C42.5623 118.081 42.1363 117.976 41.7643 117.766C41.3923 117.55 41.1013 117.25 40.8913 116.866C40.6813 116.476 40.5763 116.023 40.5763 115.507ZM48.5284 118.081C48.0484 118.081 47.6164 117.976 47.2324 117.766C46.8484 117.55 46.5454 117.247 46.3234 116.857C46.1074 116.467 45.9994 116.017 45.9994 115.507C45.9994 114.997 46.1104 114.547 46.3324 114.157C46.5604 113.767 46.8694 113.467 47.2594 113.257C47.6494 113.041 48.0844 112.933 48.5644 112.933C49.0444 112.933 49.4794 113.041 49.8694 113.257C50.2594 113.467 50.5654 113.767 50.7874 114.157C51.0154 114.547 51.1294 114.997 51.1294 115.507C51.1294 116.017 51.0124 116.467 50.7784 116.857C50.5504 117.247 50.2384 117.55 49.8424 117.766C49.4524 117.976 49.0144 118.081 48.5284 118.081ZM48.5284 116.983C48.7564 116.983 48.9694 116.929 49.1674 116.821C49.3714 116.707 49.5334 116.539 49.6534 116.317C49.7734 116.095 49.8334 115.825 49.8334 115.507C49.8334 115.033 49.7074 114.67 49.4554 114.418C49.2094 114.16 48.9064 114.031 48.5464 114.031C48.1864 114.031 47.8834 114.16 47.6374 114.418C47.3974 114.67 47.2774 115.033 47.2774 115.507C47.2774 115.981 47.3944 116.347 47.6284 116.605C47.8684 116.857 48.1684 116.983 48.5284 116.983ZM58.2456 112.942C58.8576 112.942 59.3496 113.131 59.7216 113.509C60.0996 113.881 60.2886 114.403 60.2886 115.075V118H59.0286V115.246C59.0286 114.856 58.9296 114.559 58.7316 114.355C58.5336 114.145 58.2636 114.04 57.9216 114.04C57.5796 114.04 57.3066 114.145 57.1026 114.355C56.9046 114.559 56.8056 114.856 56.8056 115.246V118H55.5456V115.246C55.5456 114.856 55.4466 114.559 55.2486 114.355C55.0506 114.145 54.7806 114.04 54.4386 114.04C54.0906 114.04 53.8146 114.145 53.6106 114.355C53.4126 114.559 53.3136 114.856 53.3136 115.246V118H52.0536V113.014H53.3136V113.617C53.4756 113.407 53.6826 113.242 53.9346 113.122C54.1926 113.002 54.4746 112.942 54.7806 112.942C55.1706 112.942 55.5186 113.026 55.8246 113.194C56.1306 113.356 56.3676 113.59 56.5356 113.896C56.6976 113.608 56.9316 113.377 57.2376 113.203C57.5496 113.029 57.8856 112.942 58.2456 112.942ZM66.1193 115.399C66.1193 115.579 66.1073 115.741 66.0833 115.885H62.4383C62.4683 116.245 62.5943 116.527 62.8163 116.731C63.0383 116.935 63.3113 117.037 63.6353 117.037C64.1033 117.037 64.4363 116.836 64.6343 116.434H65.9933C65.8493 116.914 65.5733 117.31 65.1653 117.622C64.7573 117.928 64.2563 118.081 63.6623 118.081C63.1823 118.081 62.7503 117.976 62.3663 117.766C61.9883 117.55 61.6913 117.247 61.4753 116.857C61.2653 116.467 61.1603 116.017 61.1603 115.507C61.1603 114.991 61.2653 114.538 61.4753 114.148C61.6853 113.758 61.9793 113.458 62.3573 113.248C62.7353 113.038 63.1703 112.933 63.6623 112.933C64.1363 112.933 64.5593 113.035 64.9313 113.239C65.3093 113.443 65.6003 113.734 65.8043 114.112C66.0143 114.484 66.1193 114.913 66.1193 115.399ZM64.8143 115.039C64.8083 114.715 64.6913 114.457 64.4633 114.265C64.2353 114.067 63.9563 113.968 63.6263 113.968C63.3143 113.968 63.0503 114.064 62.8343 114.256C62.6243 114.442 62.4953 114.703 62.4473 115.039H64.8143Z" fill="white"/>
    </g>
    <g clip-path="url(#clip2_2228_29750)">
        <path d="M77.75 78C77.75 75.7909 79.5409 74 81.75 74H122.75C124.959 74 126.75 75.7909 126.75 78V134H77.75V78Z" fill="#D9D9D9"/>
        <path d="M90.326 119.084C89.774 119.084 89.278 118.988 88.838 118.796C88.406 118.596 88.066 118.324 87.818 117.98C87.57 117.628 87.442 117.224 87.434 116.768H88.598C88.638 117.16 88.798 117.492 89.078 117.764C89.366 118.028 89.782 118.16 90.326 118.16C90.846 118.16 91.254 118.032 91.55 117.776C91.854 117.512 92.006 117.176 92.006 116.768C92.006 116.448 91.918 116.188 91.742 115.988C91.566 115.788 91.346 115.636 91.082 115.532C90.818 115.428 90.462 115.316 90.014 115.196C89.462 115.052 89.018 114.908 88.682 114.764C88.354 114.62 88.07 114.396 87.83 114.092C87.598 113.78 87.482 113.364 87.482 112.844C87.482 112.388 87.598 111.984 87.83 111.632C88.062 111.28 88.386 111.008 88.802 110.816C89.226 110.624 89.71 110.528 90.254 110.528C91.038 110.528 91.678 110.724 92.174 111.116C92.678 111.508 92.962 112.028 93.026 112.676H91.826C91.786 112.356 91.618 112.076 91.322 111.836C91.026 111.588 90.634 111.464 90.146 111.464C89.69 111.464 89.318 111.584 89.03 111.824C88.742 112.056 88.598 112.384 88.598 112.808C88.598 113.112 88.682 113.36 88.85 113.552C89.026 113.744 89.238 113.892 89.486 113.996C89.742 114.092 90.098 114.204 90.554 114.332C91.106 114.484 91.55 114.636 91.886 114.788C92.222 114.932 92.51 115.16 92.75 115.472C92.99 115.776 93.11 116.192 93.11 116.72C93.11 117.128 93.002 117.512 92.786 117.872C92.57 118.232 92.25 118.524 91.826 118.748C91.402 118.972 90.902 119.084 90.326 119.084ZM95.281 111.356C95.073 111.356 94.897 111.284 94.753 111.14C94.609 110.996 94.537 110.82 94.537 110.612C94.537 110.404 94.609 110.228 94.753 110.084C94.897 109.94 95.073 109.868 95.281 109.868C95.481 109.868 95.649 109.94 95.785 110.084C95.929 110.228 96.001 110.404 96.001 110.612C96.001 110.82 95.929 110.996 95.785 111.14C95.649 111.284 95.481 111.356 95.281 111.356ZM95.809 112.424V119H94.717V112.424H95.809ZM98.7621 110.12V119H97.6701V110.12H98.7621ZM103.071 117.992L105.111 112.424H106.275L103.695 119H102.423L99.8432 112.424H101.019L103.071 117.992ZM113.35 115.46C113.35 115.668 113.338 115.888 113.314 116.12H108.058C108.098 116.768 108.318 117.276 108.718 117.644C109.126 118.004 109.618 118.184 110.194 118.184C110.666 118.184 111.058 118.076 111.37 117.86C111.69 117.636 111.914 117.34 112.042 116.972H113.218C113.042 117.604 112.69 118.12 112.162 118.52C111.634 118.912 110.978 119.108 110.194 119.108C109.57 119.108 109.01 118.968 108.514 118.688C108.026 118.408 107.642 118.012 107.362 117.5C107.082 116.98 106.942 116.38 106.942 115.7C106.942 115.02 107.078 114.424 107.35 113.912C107.622 113.4 108.002 113.008 108.49 112.736C108.986 112.456 109.554 112.316 110.194 112.316C110.818 112.316 111.37 112.452 111.85 112.724C112.33 112.996 112.698 113.372 112.954 113.852C113.218 114.324 113.35 114.86 113.35 115.46ZM112.222 115.232C112.222 114.816 112.13 114.46 111.946 114.164C111.762 113.86 111.51 113.632 111.19 113.48C110.878 113.32 110.53 113.24 110.146 113.24C109.594 113.24 109.122 113.416 108.73 113.768C108.346 114.12 108.126 114.608 108.07 115.232H112.222ZM115.883 113.492C116.075 113.116 116.347 112.824 116.699 112.616C117.059 112.408 117.495 112.304 118.007 112.304V113.432H117.719C116.495 113.432 115.883 114.096 115.883 115.424V119H114.791V112.424H115.883V113.492Z" fill="#666666"/>
    </g>
    <g clip-path="url(#clip3_2228_29750)">
        <path d="M135.5 63C135.5 60.7909 137.291 59 139.5 59H180.5C182.709 59 184.5 60.7909 184.5 63V134H135.5V63Z" fill="#D9D9D9"/>
        <path d="M152.76 113.06C152.528 112.572 152.192 112.196 151.752 111.932C151.312 111.66 150.8 111.524 150.216 111.524C149.632 111.524 149.104 111.66 148.632 111.932C148.168 112.196 147.8 112.58 147.528 113.084C147.264 113.58 147.132 114.156 147.132 114.812C147.132 115.468 147.264 116.044 147.528 116.54C147.8 117.036 148.168 117.42 148.632 117.692C149.104 117.956 149.632 118.088 150.216 118.088C151.032 118.088 151.704 117.844 152.232 117.356C152.76 116.868 153.068 116.208 153.156 115.376H149.82V114.488H154.32V115.328C154.256 116.016 154.04 116.648 153.672 117.224C153.304 117.792 152.82 118.244 152.22 118.58C151.62 118.908 150.952 119.072 150.216 119.072C149.44 119.072 148.732 118.892 148.092 118.532C147.452 118.164 146.944 117.656 146.568 117.008C146.2 116.36 146.016 115.628 146.016 114.812C146.016 113.996 146.2 113.264 146.568 112.616C146.944 111.96 147.452 111.452 148.092 111.092C148.732 110.724 149.44 110.54 150.216 110.54C151.104 110.54 151.888 110.76 152.568 111.2C153.256 111.64 153.756 112.26 154.068 113.06H152.76ZM158.632 119.108C158.016 119.108 157.456 118.968 156.952 118.688C156.456 118.408 156.064 118.012 155.776 117.5C155.496 116.98 155.356 116.38 155.356 115.7C155.356 115.028 155.5 114.436 155.788 113.924C156.084 113.404 156.484 113.008 156.988 112.736C157.492 112.456 158.056 112.316 158.68 112.316C159.304 112.316 159.868 112.456 160.372 112.736C160.876 113.008 161.272 113.4 161.56 113.912C161.856 114.424 162.004 115.02 162.004 115.7C162.004 116.38 161.852 116.98 161.548 117.5C161.252 118.012 160.848 118.408 160.336 118.688C159.824 118.968 159.256 119.108 158.632 119.108ZM158.632 118.148C159.024 118.148 159.392 118.056 159.736 117.872C160.08 117.688 160.356 117.412 160.564 117.044C160.78 116.676 160.888 116.228 160.888 115.7C160.888 115.172 160.784 114.724 160.576 114.356C160.368 113.988 160.096 113.716 159.76 113.54C159.424 113.356 159.06 113.264 158.668 113.264C158.268 113.264 157.9 113.356 157.564 113.54C157.236 113.716 156.972 113.988 156.772 114.356C156.572 114.724 156.472 115.172 156.472 115.7C156.472 116.236 156.568 116.688 156.76 117.056C156.96 117.424 157.224 117.7 157.552 117.884C157.88 118.06 158.24 118.148 158.632 118.148ZM164.532 110.12V119H163.44V110.12H164.532ZM165.985 115.688C165.985 115.016 166.121 114.428 166.393 113.924C166.665 113.412 167.037 113.016 167.509 112.736C167.989 112.456 168.525 112.316 169.117 112.316C169.629 112.316 170.105 112.436 170.545 112.676C170.985 112.908 171.321 113.216 171.553 113.6V110.12H172.657V119H171.553V117.764C171.337 118.156 171.017 118.48 170.593 118.736C170.169 118.984 169.673 119.108 169.105 119.108C168.521 119.108 167.989 118.964 167.509 118.676C167.037 118.388 166.665 117.984 166.393 117.464C166.121 116.944 165.985 116.352 165.985 115.688ZM171.553 115.7C171.553 115.204 171.453 114.772 171.253 114.404C171.053 114.036 170.781 113.756 170.437 113.564C170.101 113.364 169.729 113.264 169.321 113.264C168.913 113.264 168.541 113.36 168.205 113.552C167.869 113.744 167.601 114.024 167.401 114.392C167.201 114.76 167.101 115.192 167.101 115.688C167.101 116.192 167.201 116.632 167.401 117.008C167.601 117.376 167.869 117.66 168.205 117.86C168.541 118.052 168.913 118.148 169.321 118.148C169.729 118.148 170.101 118.052 170.437 117.86C170.781 117.66 171.053 117.376 171.253 117.008C171.453 116.632 171.553 116.196 171.553 115.7Z" fill="#666666"/>
    </g>
    <g clip-path="url(#clip4_2228_29750)">
        <path d="M193.25 48C193.25 45.7909 195.041 44 197.25 44H238.25C240.459 44 242.25 45.7909 242.25 48V134H193.25V48Z" fill="#D9D9D9"/>
        <path d="M202.137 113.563C202.137 114.085 201.957 114.52 201.597 114.868C201.243 115.21 200.7 115.381 199.968 115.381H198.762V118H197.943V111.727H199.968C200.676 111.727 201.213 111.898 201.579 112.24C201.951 112.582 202.137 113.023 202.137 113.563ZM199.968 114.706C200.424 114.706 200.76 114.607 200.976 114.409C201.192 114.211 201.3 113.929 201.3 113.563C201.3 112.789 200.856 112.402 199.968 112.402H198.762V114.706H199.968ZM203.974 111.34V118H203.155V111.34H203.974ZM205.064 115.516C205.064 115.012 205.166 114.571 205.37 114.193C205.574 113.809 205.853 113.512 206.207 113.302C206.567 113.092 206.966 112.987 207.404 112.987C207.836 112.987 208.211 113.08 208.529 113.266C208.847 113.452 209.084 113.686 209.24 113.968V113.068H210.068V118H209.24V117.082C209.078 117.37 208.835 117.61 208.511 117.802C208.193 117.988 207.821 118.081 207.395 118.081C206.957 118.081 206.561 117.973 206.207 117.757C205.853 117.541 205.574 117.238 205.37 116.848C205.166 116.458 205.064 116.014 205.064 115.516ZM209.24 115.525C209.24 115.153 209.165 114.829 209.015 114.553C208.865 114.277 208.661 114.067 208.403 113.923C208.151 113.773 207.872 113.698 207.566 113.698C207.26 113.698 206.981 113.77 206.729 113.914C206.477 114.058 206.276 114.268 206.126 114.544C205.976 114.82 205.901 115.144 205.901 115.516C205.901 115.894 205.976 116.224 206.126 116.506C206.276 116.782 206.477 116.995 206.729 117.145C206.981 117.289 207.26 117.361 207.566 117.361C207.872 117.361 208.151 117.289 208.403 117.145C208.661 116.995 208.865 116.782 209.015 116.506C209.165 116.224 209.24 115.897 209.24 115.525ZM212.451 113.743V116.65C212.451 116.89 212.502 117.061 212.604 117.163C212.706 117.259 212.883 117.307 213.135 117.307H213.738V118H213C212.544 118 212.202 117.895 211.974 117.685C211.746 117.475 211.632 117.13 211.632 116.65V113.743H210.993V113.068H211.632V111.826H212.451V113.068H213.738V113.743H212.451ZM215.153 112.267C214.997 112.267 214.865 112.213 214.757 112.105C214.649 111.997 214.595 111.865 214.595 111.709C214.595 111.553 214.649 111.421 214.757 111.313C214.865 111.205 214.997 111.151 215.153 111.151C215.303 111.151 215.429 111.205 215.531 111.313C215.639 111.421 215.693 111.553 215.693 111.709C215.693 111.865 215.639 111.997 215.531 112.105C215.429 112.213 215.303 112.267 215.153 112.267ZM215.549 113.068V118H214.73V113.068H215.549ZM219.348 112.978C219.948 112.978 220.434 113.161 220.806 113.527C221.178 113.887 221.364 114.409 221.364 115.093V118H220.554V115.21C220.554 114.718 220.431 114.343 220.185 114.085C219.939 113.821 219.603 113.689 219.177 113.689C218.745 113.689 218.4 113.824 218.142 114.094C217.89 114.364 217.764 114.757 217.764 115.273V118H216.945V113.068H217.764V113.77C217.926 113.518 218.145 113.323 218.421 113.185C218.703 113.047 219.012 112.978 219.348 112.978ZM227.076 113.068V118H226.257V117.271C226.101 117.523 225.882 117.721 225.6 117.865C225.324 118.003 225.018 118.072 224.682 118.072C224.298 118.072 223.953 117.994 223.647 117.838C223.341 117.676 223.098 117.436 222.918 117.118C222.744 116.8 222.657 116.413 222.657 115.957V113.068H223.467V115.849C223.467 116.335 223.59 116.71 223.836 116.974C224.082 117.232 224.418 117.361 224.844 117.361C225.282 117.361 225.627 117.226 225.879 116.956C226.131 116.686 226.257 116.293 226.257 115.777V113.068H227.076ZM234.39 112.978C234.774 112.978 235.116 113.059 235.416 113.221C235.716 113.377 235.953 113.614 236.127 113.932C236.301 114.25 236.388 114.637 236.388 115.093V118H235.578V115.21C235.578 114.718 235.455 114.343 235.209 114.085C234.969 113.821 234.642 113.689 234.228 113.689C233.802 113.689 233.463 113.827 233.211 114.103C232.959 114.373 232.833 114.766 232.833 115.282V118H232.023V115.21C232.023 114.718 231.9 114.343 231.654 114.085C231.414 113.821 231.087 113.689 230.673 113.689C230.247 113.689 229.908 113.827 229.656 114.103C229.404 114.373 229.278 114.766 229.278 115.282V118H228.459V113.068H229.278V113.779C229.44 113.521 229.656 113.323 229.926 113.185C230.202 113.047 230.505 112.978 230.835 112.978C231.249 112.978 231.615 113.071 231.933 113.257C232.251 113.443 232.488 113.716 232.644 114.076C232.782 113.728 233.01 113.458 233.328 113.266C233.646 113.074 234 112.978 234.39 112.978Z" fill="#666666"/>
    </g>
    <g clip-path="url(#clip5_2228_29750)">
        <path d="M251 28C251 25.7909 252.791 24 255 24H296C298.209 24 300 25.7909 300 28V134H251V28Z" fill="#D9D9D9"/>
        <path d="M273.836 110.636L270.68 119H269.42L266.264 110.636H267.428L270.056 117.848L272.684 110.636H273.836ZM275.597 111.356C275.389 111.356 275.213 111.284 275.069 111.14C274.925 110.996 274.853 110.82 274.853 110.612C274.853 110.404 274.925 110.228 275.069 110.084C275.213 109.94 275.389 109.868 275.597 109.868C275.797 109.868 275.965 109.94 276.101 110.084C276.245 110.228 276.317 110.404 276.317 110.612C276.317 110.82 276.245 110.996 276.101 111.14C275.965 111.284 275.797 111.356 275.597 111.356ZM276.125 112.424V119H275.033V112.424H276.125ZM279.079 113.636C279.295 113.26 279.615 112.948 280.039 112.7C280.471 112.444 280.971 112.316 281.539 112.316C282.123 112.316 282.651 112.456 283.122 112.736C283.602 113.016 283.979 113.412 284.251 113.924C284.523 114.428 284.659 115.016 284.659 115.688C284.659 116.352 284.523 116.944 284.251 117.464C283.979 117.984 283.602 118.388 283.122 118.676C282.651 118.964 282.123 119.108 281.539 119.108C280.979 119.108 280.483 118.984 280.051 118.736C279.627 118.48 279.303 118.164 279.079 117.788V122.12H277.987V112.424H279.079V113.636ZM283.543 115.688C283.543 115.192 283.443 114.76 283.243 114.392C283.043 114.024 282.771 113.744 282.427 113.552C282.091 113.36 281.719 113.264 281.311 113.264C280.911 113.264 280.539 113.364 280.195 113.564C279.859 113.756 279.587 114.04 279.379 114.416C279.179 114.784 279.079 115.212 279.079 115.7C279.079 116.196 279.179 116.632 279.379 117.008C279.587 117.376 279.859 117.66 280.195 117.86C280.539 118.052 280.911 118.148 281.311 118.148C281.719 118.148 282.091 118.052 282.427 117.86C282.771 117.66 283.043 117.376 283.243 117.008C283.443 116.632 283.543 116.192 283.543 115.688Z" fill="#666666"/>
    </g>
    <defs>
        <clipPath id="clip0_2228_29750">
            <rect width="30" height="30" fill="white" transform="translate(29.5 45)"/>
        </clipPath>
        <clipPath id="clip1_2228_29750">
            <rect width="49" height="50" fill="white" transform="translate(20 84)"/>
        </clipPath>
        <clipPath id="clip2_2228_29750">
            <rect width="49" height="60" fill="white" transform="translate(77.75 74)"/>
        </clipPath>
        <clipPath id="clip3_2228_29750">
            <rect width="49" height="75" fill="white" transform="translate(135.5 59)"/>
        </clipPath>
        <clipPath id="clip4_2228_29750">
            <rect width="49" height="90" fill="white" transform="translate(193.25 44)"/>
        </clipPath>
        <clipPath id="clip5_2228_29750">
            <rect width="49" height="110" fill="white" transform="translate(251 24)"/>
        </clipPath>
    </defs>
</svg>
