<svg width="320" height="168" viewBox="0 0 320 168" fill="none" xmlns="http://www.w3.org/2000/svg">
    <rect width="320" height="168" fill="#F1F1F8"/>
    <path d="M20 122C20 119.791 21.7909 118 24 118H65C67.2091 118 69 119.791 69 122V168H20V122Z" fill="#D9D9D9"/>
    <path d="M31.577 145.727L29.759 152H28.841L27.383 146.951L25.871 152L24.962 152.009L23.207 145.727H24.08L25.448 151.046L26.96 145.727H27.878L29.318 151.028L30.695 145.727H31.577ZM36.9733 149.345C36.9733 149.501 36.9643 149.666 36.9463 149.84H33.0043C33.0343 150.326 33.1993 150.707 33.4993 150.983C33.8053 151.253 34.1743 151.388 34.6063 151.388C34.9603 151.388 35.2543 151.307 35.4883 151.145C35.7283 150.977 35.8963 150.755 35.9923 150.479H36.8743C36.7423 150.953 36.4783 151.34 36.0823 151.64C35.6863 151.934 35.1943 152.081 34.6063 152.081C34.1383 152.081 33.7183 151.976 33.3463 151.766C32.9803 151.556 32.6923 151.259 32.4823 150.875C32.2723 150.485 32.1673 150.035 32.1673 149.525C32.1673 149.015 32.2693 148.568 32.4733 148.184C32.6773 147.8 32.9623 147.506 33.3283 147.302C33.7003 147.092 34.1263 146.987 34.6063 146.987C35.0743 146.987 35.4883 147.089 35.8483 147.293C36.2083 147.497 36.4843 147.779 36.6763 148.139C36.8743 148.493 36.9733 148.895 36.9733 149.345ZM36.1273 149.174C36.1273 148.862 36.0583 148.595 35.9203 148.373C35.7823 148.145 35.5933 147.974 35.3533 147.86C35.1193 147.74 34.8583 147.68 34.5703 147.68C34.1563 147.68 33.8023 147.812 33.5083 148.076C33.2203 148.34 33.0553 148.706 33.0133 149.174H36.1273ZM38.8733 145.34V152H38.0543V145.34H38.8733ZM39.9632 149.525C39.9632 149.015 40.0652 148.571 40.2692 148.193C40.4732 147.809 40.7552 147.512 41.1152 147.302C41.4812 147.092 41.8982 146.987 42.3662 146.987C42.9722 146.987 43.4702 147.134 43.8602 147.428C44.2562 147.722 44.5172 148.13 44.6432 148.652H43.7612C43.6772 148.352 43.5122 148.115 43.2662 147.941C43.0262 147.767 42.7262 147.68 42.3662 147.68C41.8982 147.68 41.5202 147.842 41.2322 148.166C40.9442 148.484 40.8002 148.937 40.8002 149.525C40.8002 150.119 40.9442 150.578 41.2322 150.902C41.5202 151.226 41.8982 151.388 42.3662 151.388C42.7262 151.388 43.0262 151.304 43.2662 151.136C43.5062 150.968 43.6712 150.728 43.7612 150.416H44.6432C44.5112 150.92 44.2472 151.325 43.8512 151.631C43.4552 151.931 42.9602 152.081 42.3662 152.081C41.8982 152.081 41.4812 151.976 41.1152 151.766C40.7552 151.556 40.4732 151.259 40.2692 150.875C40.0652 150.491 39.9632 150.041 39.9632 149.525ZM47.887 152.081C47.425 152.081 47.005 151.976 46.627 151.766C46.255 151.556 45.961 151.259 45.745 150.875C45.535 150.485 45.43 150.035 45.43 149.525C45.43 149.021 45.538 148.577 45.754 148.193C45.976 147.803 46.276 147.506 46.654 147.302C47.032 147.092 47.455 146.987 47.923 146.987C48.391 146.987 48.814 147.092 49.192 147.302C49.57 147.506 49.867 147.8 50.083 148.184C50.305 148.568 50.416 149.015 50.416 149.525C50.416 150.035 50.302 150.485 50.074 150.875C49.852 151.259 49.549 151.556 49.165 151.766C48.781 151.976 48.355 152.081 47.887 152.081ZM47.887 151.361C48.181 151.361 48.457 151.292 48.715 151.154C48.973 151.016 49.18 150.809 49.336 150.533C49.498 150.257 49.579 149.921 49.579 149.525C49.579 149.129 49.501 148.793 49.345 148.517C49.189 148.241 48.985 148.037 48.733 147.905C48.481 147.767 48.208 147.698 47.914 147.698C47.614 147.698 47.338 147.767 47.086 147.905C46.84 148.037 46.642 148.241 46.492 148.517C46.342 148.793 46.267 149.129 46.267 149.525C46.267 149.927 46.339 150.266 46.483 150.542C46.633 150.818 46.831 151.025 47.077 151.163C47.323 151.295 47.593 151.361 47.887 151.361ZM57.4238 146.978C57.8078 146.978 58.1498 147.059 58.4498 147.221C58.7498 147.377 58.9868 147.614 59.1608 147.932C59.3348 148.25 59.4218 148.637 59.4218 149.093V152H58.6118V149.21C58.6118 148.718 58.4888 148.343 58.2428 148.085C58.0028 147.821 57.6758 147.689 57.2618 147.689C56.8358 147.689 56.4968 147.827 56.2448 148.103C55.9928 148.373 55.8668 148.766 55.8668 149.282V152H55.0568V149.21C55.0568 148.718 54.9338 148.343 54.6878 148.085C54.4478 147.821 54.1208 147.689 53.7068 147.689C53.2808 147.689 52.9418 147.827 52.6898 148.103C52.4378 148.373 52.3118 148.766 52.3118 149.282V152H51.4928V147.068H52.3118V147.779C52.4738 147.521 52.6898 147.323 52.9598 147.185C53.2358 147.047 53.5388 146.978 53.8688 146.978C54.2828 146.978 54.6488 147.071 54.9668 147.257C55.2848 147.443 55.5218 147.716 55.6778 148.076C55.8158 147.728 56.0438 147.458 56.3618 147.266C56.6798 147.074 57.0338 146.978 57.4238 146.978ZM65.2653 149.345C65.2653 149.501 65.2563 149.666 65.2383 149.84H61.2963C61.3263 150.326 61.4913 150.707 61.7913 150.983C62.0973 151.253 62.4663 151.388 62.8983 151.388C63.2523 151.388 63.5463 151.307 63.7803 151.145C64.0203 150.977 64.1883 150.755 64.2843 150.479H65.1663C65.0343 150.953 64.7703 151.34 64.3743 151.64C63.9783 151.934 63.4863 152.081 62.8983 152.081C62.4303 152.081 62.0103 151.976 61.6383 151.766C61.2723 151.556 60.9843 151.259 60.7743 150.875C60.5643 150.485 60.4593 150.035 60.4593 149.525C60.4593 149.015 60.5613 148.568 60.7653 148.184C60.9693 147.8 61.2543 147.506 61.6203 147.302C61.9923 147.092 62.4183 146.987 62.8983 146.987C63.3663 146.987 63.7803 147.089 64.1403 147.293C64.5003 147.497 64.7763 147.779 64.9683 148.139C65.1663 148.493 65.2653 148.895 65.2653 149.345ZM64.4193 149.174C64.4193 148.862 64.3503 148.595 64.2123 148.373C64.0743 148.145 63.8853 147.974 63.6453 147.86C63.4113 147.74 63.1503 147.68 62.8623 147.68C62.4483 147.68 62.0943 147.812 61.8003 148.076C61.5123 148.34 61.3473 148.706 61.3053 149.174H64.4193Z" fill="#666666"/>
    <g clip-path="url(#clip0_2228_29878)">
        <path d="M77.75 112C77.75 109.791 79.5409 108 81.75 108H122.75C124.959 108 126.75 109.791 126.75 112V168H77.75V112Z" fill="#D9D9D9"/>
        <path d="M90.326 153.084C89.774 153.084 89.278 152.988 88.838 152.796C88.406 152.596 88.066 152.324 87.818 151.98C87.57 151.628 87.442 151.224 87.434 150.768H88.598C88.638 151.16 88.798 151.492 89.078 151.764C89.366 152.028 89.782 152.16 90.326 152.16C90.846 152.16 91.254 152.032 91.55 151.776C91.854 151.512 92.006 151.176 92.006 150.768C92.006 150.448 91.918 150.188 91.742 149.988C91.566 149.788 91.346 149.636 91.082 149.532C90.818 149.428 90.462 149.316 90.014 149.196C89.462 149.052 89.018 148.908 88.682 148.764C88.354 148.62 88.07 148.396 87.83 148.092C87.598 147.78 87.482 147.364 87.482 146.844C87.482 146.388 87.598 145.984 87.83 145.632C88.062 145.28 88.386 145.008 88.802 144.816C89.226 144.624 89.71 144.528 90.254 144.528C91.038 144.528 91.678 144.724 92.174 145.116C92.678 145.508 92.962 146.028 93.026 146.676H91.826C91.786 146.356 91.618 146.076 91.322 145.836C91.026 145.588 90.634 145.464 90.146 145.464C89.69 145.464 89.318 145.584 89.03 145.824C88.742 146.056 88.598 146.384 88.598 146.808C88.598 147.112 88.682 147.36 88.85 147.552C89.026 147.744 89.238 147.892 89.486 147.996C89.742 148.092 90.098 148.204 90.554 148.332C91.106 148.484 91.55 148.636 91.886 148.788C92.222 148.932 92.51 149.16 92.75 149.472C92.99 149.776 93.11 150.192 93.11 150.72C93.11 151.128 93.002 151.512 92.786 151.872C92.57 152.232 92.25 152.524 91.826 152.748C91.402 152.972 90.902 153.084 90.326 153.084ZM95.281 145.356C95.073 145.356 94.897 145.284 94.753 145.14C94.609 144.996 94.537 144.82 94.537 144.612C94.537 144.404 94.609 144.228 94.753 144.084C94.897 143.94 95.073 143.868 95.281 143.868C95.481 143.868 95.649 143.94 95.785 144.084C95.929 144.228 96.001 144.404 96.001 144.612C96.001 144.82 95.929 144.996 95.785 145.14C95.649 145.284 95.481 145.356 95.281 145.356ZM95.809 146.424V153H94.717V146.424H95.809ZM98.7621 144.12V153H97.6701V144.12H98.7621ZM103.071 151.992L105.111 146.424H106.275L103.695 153H102.423L99.8432 146.424H101.019L103.071 151.992ZM113.35 149.46C113.35 149.668 113.338 149.888 113.314 150.12H108.058C108.098 150.768 108.318 151.276 108.718 151.644C109.126 152.004 109.618 152.184 110.194 152.184C110.666 152.184 111.058 152.076 111.37 151.86C111.69 151.636 111.914 151.34 112.042 150.972H113.218C113.042 151.604 112.69 152.12 112.162 152.52C111.634 152.912 110.978 153.108 110.194 153.108C109.57 153.108 109.01 152.968 108.514 152.688C108.026 152.408 107.642 152.012 107.362 151.5C107.082 150.98 106.942 150.38 106.942 149.7C106.942 149.02 107.078 148.424 107.35 147.912C107.622 147.4 108.002 147.008 108.49 146.736C108.986 146.456 109.554 146.316 110.194 146.316C110.818 146.316 111.37 146.452 111.85 146.724C112.33 146.996 112.698 147.372 112.954 147.852C113.218 148.324 113.35 148.86 113.35 149.46ZM112.222 149.232C112.222 148.816 112.13 148.46 111.946 148.164C111.762 147.86 111.51 147.632 111.19 147.48C110.878 147.32 110.53 147.24 110.146 147.24C109.594 147.24 109.122 147.416 108.73 147.768C108.346 148.12 108.126 148.608 108.07 149.232H112.222ZM115.883 147.492C116.075 147.116 116.347 146.824 116.699 146.616C117.059 146.408 117.495 146.304 118.007 146.304V147.432H117.719C116.495 147.432 115.883 148.096 115.883 149.424V153H114.791V146.424H115.883V147.492Z" fill="#666666"/>
    </g>
    <g clip-path="url(#clip1_2228_29878)">
        <path d="M135.5 97C135.5 94.7909 137.291 93 139.5 93H180.5C182.709 93 184.5 94.7909 184.5 97V168H135.5V97Z" fill="#D9D9D9"/>
        <path d="M152.76 147.06C152.528 146.572 152.192 146.196 151.752 145.932C151.312 145.66 150.8 145.524 150.216 145.524C149.632 145.524 149.104 145.66 148.632 145.932C148.168 146.196 147.8 146.58 147.528 147.084C147.264 147.58 147.132 148.156 147.132 148.812C147.132 149.468 147.264 150.044 147.528 150.54C147.8 151.036 148.168 151.42 148.632 151.692C149.104 151.956 149.632 152.088 150.216 152.088C151.032 152.088 151.704 151.844 152.232 151.356C152.76 150.868 153.068 150.208 153.156 149.376H149.82V148.488H154.32V149.328C154.256 150.016 154.04 150.648 153.672 151.224C153.304 151.792 152.82 152.244 152.22 152.58C151.62 152.908 150.952 153.072 150.216 153.072C149.44 153.072 148.732 152.892 148.092 152.532C147.452 152.164 146.944 151.656 146.568 151.008C146.2 150.36 146.016 149.628 146.016 148.812C146.016 147.996 146.2 147.264 146.568 146.616C146.944 145.96 147.452 145.452 148.092 145.092C148.732 144.724 149.44 144.54 150.216 144.54C151.104 144.54 151.888 144.76 152.568 145.2C153.256 145.64 153.756 146.26 154.068 147.06H152.76ZM158.632 153.108C158.016 153.108 157.456 152.968 156.952 152.688C156.456 152.408 156.064 152.012 155.776 151.5C155.496 150.98 155.356 150.38 155.356 149.7C155.356 149.028 155.5 148.436 155.788 147.924C156.084 147.404 156.484 147.008 156.988 146.736C157.492 146.456 158.056 146.316 158.68 146.316C159.304 146.316 159.868 146.456 160.372 146.736C160.876 147.008 161.272 147.4 161.56 147.912C161.856 148.424 162.004 149.02 162.004 149.7C162.004 150.38 161.852 150.98 161.548 151.5C161.252 152.012 160.848 152.408 160.336 152.688C159.824 152.968 159.256 153.108 158.632 153.108ZM158.632 152.148C159.024 152.148 159.392 152.056 159.736 151.872C160.08 151.688 160.356 151.412 160.564 151.044C160.78 150.676 160.888 150.228 160.888 149.7C160.888 149.172 160.784 148.724 160.576 148.356C160.368 147.988 160.096 147.716 159.76 147.54C159.424 147.356 159.06 147.264 158.668 147.264C158.268 147.264 157.9 147.356 157.564 147.54C157.236 147.716 156.972 147.988 156.772 148.356C156.572 148.724 156.472 149.172 156.472 149.7C156.472 150.236 156.568 150.688 156.76 151.056C156.96 151.424 157.224 151.7 157.552 151.884C157.88 152.06 158.24 152.148 158.632 152.148ZM164.532 144.12V153H163.44V144.12H164.532ZM165.985 149.688C165.985 149.016 166.121 148.428 166.393 147.924C166.665 147.412 167.037 147.016 167.509 146.736C167.989 146.456 168.525 146.316 169.117 146.316C169.629 146.316 170.105 146.436 170.545 146.676C170.985 146.908 171.321 147.216 171.553 147.6V144.12H172.657V153H171.553V151.764C171.337 152.156 171.017 152.48 170.593 152.736C170.169 152.984 169.673 153.108 169.105 153.108C168.521 153.108 167.989 152.964 167.509 152.676C167.037 152.388 166.665 151.984 166.393 151.464C166.121 150.944 165.985 150.352 165.985 149.688ZM171.553 149.7C171.553 149.204 171.453 148.772 171.253 148.404C171.053 148.036 170.781 147.756 170.437 147.564C170.101 147.364 169.729 147.264 169.321 147.264C168.913 147.264 168.541 147.36 168.205 147.552C167.869 147.744 167.601 148.024 167.401 148.392C167.201 148.76 167.101 149.192 167.101 149.688C167.101 150.192 167.201 150.632 167.401 151.008C167.601 151.376 167.869 151.66 168.205 151.86C168.541 152.052 168.913 152.148 169.321 152.148C169.729 152.148 170.101 152.052 170.437 151.86C170.781 151.66 171.053 151.376 171.253 151.008C171.453 150.632 171.553 150.196 171.553 149.7Z" fill="#666666"/>
    </g>
    <g clip-path="url(#clip2_2228_29878)">
        <path d="M193.25 82C193.25 79.7909 195.041 78 197.25 78H238.25C240.459 78 242.25 79.7909 242.25 82V168H193.25V82Z" fill="#D9D9D9"/>
        <path d="M202.137 149.563C202.137 150.085 201.957 150.52 201.597 150.868C201.243 151.21 200.7 151.381 199.968 151.381H198.762V154H197.943V147.727H199.968C200.676 147.727 201.213 147.898 201.579 148.24C201.951 148.582 202.137 149.023 202.137 149.563ZM199.968 150.706C200.424 150.706 200.76 150.607 200.976 150.409C201.192 150.211 201.3 149.929 201.3 149.563C201.3 148.789 200.856 148.402 199.968 148.402H198.762V150.706H199.968ZM203.974 147.34V154H203.155V147.34H203.974ZM205.064 151.516C205.064 151.012 205.166 150.571 205.37 150.193C205.574 149.809 205.853 149.512 206.207 149.302C206.567 149.092 206.966 148.987 207.404 148.987C207.836 148.987 208.211 149.08 208.529 149.266C208.847 149.452 209.084 149.686 209.24 149.968V149.068H210.068V154H209.24V153.082C209.078 153.37 208.835 153.61 208.511 153.802C208.193 153.988 207.821 154.081 207.395 154.081C206.957 154.081 206.561 153.973 206.207 153.757C205.853 153.541 205.574 153.238 205.37 152.848C205.166 152.458 205.064 152.014 205.064 151.516ZM209.24 151.525C209.24 151.153 209.165 150.829 209.015 150.553C208.865 150.277 208.661 150.067 208.403 149.923C208.151 149.773 207.872 149.698 207.566 149.698C207.26 149.698 206.981 149.77 206.729 149.914C206.477 150.058 206.276 150.268 206.126 150.544C205.976 150.82 205.901 151.144 205.901 151.516C205.901 151.894 205.976 152.224 206.126 152.506C206.276 152.782 206.477 152.995 206.729 153.145C206.981 153.289 207.26 153.361 207.566 153.361C207.872 153.361 208.151 153.289 208.403 153.145C208.661 152.995 208.865 152.782 209.015 152.506C209.165 152.224 209.24 151.897 209.24 151.525ZM212.451 149.743V152.65C212.451 152.89 212.502 153.061 212.604 153.163C212.706 153.259 212.883 153.307 213.135 153.307H213.738V154H213C212.544 154 212.202 153.895 211.974 153.685C211.746 153.475 211.632 153.13 211.632 152.65V149.743H210.993V149.068H211.632V147.826H212.451V149.068H213.738V149.743H212.451ZM215.153 148.267C214.997 148.267 214.865 148.213 214.757 148.105C214.649 147.997 214.595 147.865 214.595 147.709C214.595 147.553 214.649 147.421 214.757 147.313C214.865 147.205 214.997 147.151 215.153 147.151C215.303 147.151 215.429 147.205 215.531 147.313C215.639 147.421 215.693 147.553 215.693 147.709C215.693 147.865 215.639 147.997 215.531 148.105C215.429 148.213 215.303 148.267 215.153 148.267ZM215.549 149.068V154H214.73V149.068H215.549ZM219.348 148.978C219.948 148.978 220.434 149.161 220.806 149.527C221.178 149.887 221.364 150.409 221.364 151.093V154H220.554V151.21C220.554 150.718 220.431 150.343 220.185 150.085C219.939 149.821 219.603 149.689 219.177 149.689C218.745 149.689 218.4 149.824 218.142 150.094C217.89 150.364 217.764 150.757 217.764 151.273V154H216.945V149.068H217.764V149.77C217.926 149.518 218.145 149.323 218.421 149.185C218.703 149.047 219.012 148.978 219.348 148.978ZM227.076 149.068V154H226.257V153.271C226.101 153.523 225.882 153.721 225.6 153.865C225.324 154.003 225.018 154.072 224.682 154.072C224.298 154.072 223.953 153.994 223.647 153.838C223.341 153.676 223.098 153.436 222.918 153.118C222.744 152.8 222.657 152.413 222.657 151.957V149.068H223.467V151.849C223.467 152.335 223.59 152.71 223.836 152.974C224.082 153.232 224.418 153.361 224.844 153.361C225.282 153.361 225.627 153.226 225.879 152.956C226.131 152.686 226.257 152.293 226.257 151.777V149.068H227.076ZM234.39 148.978C234.774 148.978 235.116 149.059 235.416 149.221C235.716 149.377 235.953 149.614 236.127 149.932C236.301 150.25 236.388 150.637 236.388 151.093V154H235.578V151.21C235.578 150.718 235.455 150.343 235.209 150.085C234.969 149.821 234.642 149.689 234.228 149.689C233.802 149.689 233.463 149.827 233.211 150.103C232.959 150.373 232.833 150.766 232.833 151.282V154H232.023V151.21C232.023 150.718 231.9 150.343 231.654 150.085C231.414 149.821 231.087 149.689 230.673 149.689C230.247 149.689 229.908 149.827 229.656 150.103C229.404 150.373 229.278 150.766 229.278 151.282V154H228.459V149.068H229.278V149.779C229.44 149.521 229.656 149.323 229.926 149.185C230.202 149.047 230.505 148.978 230.835 148.978C231.249 148.978 231.615 149.071 231.933 149.257C232.251 149.443 232.488 149.716 232.644 150.076C232.782 149.728 233.01 149.458 233.328 149.266C233.646 149.074 234 148.978 234.39 148.978Z" fill="#666666"/>
    </g>
    <g clip-path="url(#clip3_2228_29878)">
        <path d="M275.501 52.7603C283.1 52.7603 289.261 46.5996 289.261 38.9999C289.261 31.4002 283.1 25.2395 275.501 25.2395C267.901 25.2395 261.74 31.4002 261.74 38.9999C261.74 46.5996 267.901 52.7603 275.501 52.7603Z" stroke="#111111" stroke-width="2.4792"/>
        <path d="M275.499 49.9092C281.524 49.9092 286.408 45.025 286.408 39C286.408 32.975 281.524 28.0908 275.499 28.0908C269.474 28.0908 264.59 32.975 264.59 39C264.59 45.025 269.474 49.9092 275.499 49.9092Z" fill="#111111" stroke="#111111" stroke-width="0.2478"/>
        <path d="M274.5 33.9174V33.7932H270.293V34.2876L270.408 34.2954C270.75 34.3182 270.99 34.4094 271.146 34.5534L271.147 34.5546C271.227 34.6254 271.329 34.7616 271.452 34.9746C271.573 35.1846 271.711 35.4618 271.866 35.8056L275.533 43.9848L275.566 44.058H275.956L275.987 43.9794L279.277 35.6118C279.499 35.0424 279.715 34.6884 279.917 34.521C280.042 34.4166 280.247 34.3368 280.552 34.2942L280.659 34.2798V33.7932H277.368V34.3134L277.488 34.317C277.82 34.3272 278.04 34.3608 278.164 34.41C278.268 34.4526 278.338 34.5114 278.384 34.5834C278.43 34.6554 278.457 34.7514 278.457 34.8762C278.457 34.9662 278.436 35.0916 278.389 35.256C278.342 35.4216 278.273 35.6262 278.182 35.8716L276.174 41.1972L273.973 36.2928C273.807 35.9321 273.648 35.5682 273.496 35.2014C273.415 34.9878 273.381 34.8354 273.381 34.7382C273.381 34.641 273.405 34.5702 273.445 34.5168C273.498 34.4523 273.57 34.406 273.651 34.3842C273.766 34.347 274.003 34.3224 274.377 34.3176L274.5 34.3158V33.9174Z" fill="white" stroke="#111111" stroke-width="0.2478"/>
    </g>
    <path d="M251 67C251 64.7909 252.791 63 255 63H296C298.209 63 300 64.7909 300 67V168H251V67Z" fill="#111111"/>
    <path d="M274.352 146.624L271.28 155H269.24L266.168 146.624H267.968L270.272 153.284L272.564 146.624H274.352ZM276.211 147.56C275.915 147.56 275.667 147.468 275.467 147.284C275.275 147.092 275.179 146.856 275.179 146.576C275.179 146.296 275.275 146.064 275.467 145.88C275.667 145.688 275.915 145.592 276.211 145.592C276.507 145.592 276.751 145.688 276.943 145.88C277.143 146.064 277.243 146.296 277.243 146.576C277.243 146.856 277.143 147.092 276.943 147.284C276.751 147.468 276.507 147.56 276.211 147.56ZM277.039 148.352V155H275.359V148.352H277.039ZM280.379 149.312C280.595 149.008 280.891 148.756 281.267 148.556C281.651 148.348 282.087 148.244 282.575 148.244C283.143 148.244 283.655 148.384 284.111 148.664C284.575 148.944 284.939 149.344 285.203 149.864C285.475 150.376 285.611 150.972 285.611 151.652C285.611 152.332 285.475 152.936 285.203 153.464C284.939 153.984 284.575 154.388 284.111 154.676C283.655 154.964 283.143 155.108 282.575 155.108C282.087 155.108 281.655 155.008 281.279 154.808C280.911 154.608 280.611 154.356 280.379 154.052V158.168H278.699V148.352H280.379V149.312ZM283.895 151.652C283.895 151.252 283.811 150.908 283.643 150.62C283.483 150.324 283.267 150.1 282.995 149.948C282.731 149.796 282.443 149.72 282.131 149.72C281.827 149.72 281.539 149.8 281.267 149.96C281.003 150.112 280.787 150.336 280.619 150.632C280.459 150.928 280.379 151.276 280.379 151.676C280.379 152.076 280.459 152.424 280.619 152.72C280.787 153.016 281.003 153.244 281.267 153.404C281.539 153.556 281.827 153.632 282.131 153.632C282.443 153.632 282.731 153.552 282.995 153.392C283.267 153.232 283.483 153.004 283.643 152.708C283.811 152.412 283.895 152.06 283.895 151.652Z" fill="white"/>
    <defs>
        <clipPath id="clip0_2228_29878">
            <rect width="49" height="60" fill="white" transform="translate(77.75 108)"/>
        </clipPath>
        <clipPath id="clip1_2228_29878">
            <rect width="49" height="75" fill="white" transform="translate(135.5 93)"/>
        </clipPath>
        <clipPath id="clip2_2228_29878">
            <rect width="49" height="90" fill="white" transform="translate(193.25 78)"/>
        </clipPath>
        <clipPath id="clip3_2228_29878">
            <rect width="30" height="30" fill="white" transform="translate(260.5 24)"/>
        </clipPath>
    </defs>
</svg>
