<svg width="320" height="138" viewBox="0 0 320 138" fill="none" xmlns="http://www.w3.org/2000/svg">
    <rect width="320" height="138" fill="#F1F1F8"/>
    <path d="M20 92C20 89.7909 21.7909 88 24 88H65C67.2091 88 69 89.7909 69 92V138H20V92Z" fill="#D9D9D9"/>
    <path d="M31.577 115.727L29.759 122H28.841L27.383 116.951L25.871 122L24.962 122.009L23.207 115.727H24.08L25.448 121.046L26.96 115.727H27.878L29.318 121.028L30.695 115.727H31.577ZM36.9733 119.345C36.9733 119.501 36.9643 119.666 36.9463 119.84H33.0043C33.0343 120.326 33.1993 120.707 33.4993 120.983C33.8053 121.253 34.1743 121.388 34.6063 121.388C34.9603 121.388 35.2543 121.307 35.4883 121.145C35.7283 120.977 35.8963 120.755 35.9923 120.479H36.8743C36.7423 120.953 36.4783 121.34 36.0823 121.64C35.6863 121.934 35.1943 122.081 34.6063 122.081C34.1383 122.081 33.7183 121.976 33.3463 121.766C32.9803 121.556 32.6923 121.259 32.4823 120.875C32.2723 120.485 32.1673 120.035 32.1673 119.525C32.1673 119.015 32.2693 118.568 32.4733 118.184C32.6773 117.8 32.9623 117.506 33.3283 117.302C33.7003 117.092 34.1263 116.987 34.6063 116.987C35.0743 116.987 35.4883 117.089 35.8483 117.293C36.2083 117.497 36.4843 117.779 36.6763 118.139C36.8743 118.493 36.9733 118.895 36.9733 119.345ZM36.1273 119.174C36.1273 118.862 36.0583 118.595 35.9203 118.373C35.7823 118.145 35.5933 117.974 35.3533 117.86C35.1193 117.74 34.8583 117.68 34.5703 117.68C34.1563 117.68 33.8023 117.812 33.5083 118.076C33.2203 118.34 33.0553 118.706 33.0133 119.174H36.1273ZM38.8733 115.34V122H38.0543V115.34H38.8733ZM39.9632 119.525C39.9632 119.015 40.0652 118.571 40.2692 118.193C40.4732 117.809 40.7552 117.512 41.1152 117.302C41.4812 117.092 41.8982 116.987 42.3662 116.987C42.9722 116.987 43.4702 117.134 43.8602 117.428C44.2562 117.722 44.5172 118.13 44.6432 118.652H43.7612C43.6772 118.352 43.5122 118.115 43.2662 117.941C43.0262 117.767 42.7262 117.68 42.3662 117.68C41.8982 117.68 41.5202 117.842 41.2322 118.166C40.9442 118.484 40.8002 118.937 40.8002 119.525C40.8002 120.119 40.9442 120.578 41.2322 120.902C41.5202 121.226 41.8982 121.388 42.3662 121.388C42.7262 121.388 43.0262 121.304 43.2662 121.136C43.5062 120.968 43.6712 120.728 43.7612 120.416H44.6432C44.5112 120.92 44.2472 121.325 43.8512 121.631C43.4552 121.931 42.9602 122.081 42.3662 122.081C41.8982 122.081 41.4812 121.976 41.1152 121.766C40.7552 121.556 40.4732 121.259 40.2692 120.875C40.0652 120.491 39.9632 120.041 39.9632 119.525ZM47.887 122.081C47.425 122.081 47.005 121.976 46.627 121.766C46.255 121.556 45.961 121.259 45.745 120.875C45.535 120.485 45.43 120.035 45.43 119.525C45.43 119.021 45.538 118.577 45.754 118.193C45.976 117.803 46.276 117.506 46.654 117.302C47.032 117.092 47.455 116.987 47.923 116.987C48.391 116.987 48.814 117.092 49.192 117.302C49.57 117.506 49.867 117.8 50.083 118.184C50.305 118.568 50.416 119.015 50.416 119.525C50.416 120.035 50.302 120.485 50.074 120.875C49.852 121.259 49.549 121.556 49.165 121.766C48.781 121.976 48.355 122.081 47.887 122.081ZM47.887 121.361C48.181 121.361 48.457 121.292 48.715 121.154C48.973 121.016 49.18 120.809 49.336 120.533C49.498 120.257 49.579 119.921 49.579 119.525C49.579 119.129 49.501 118.793 49.345 118.517C49.189 118.241 48.985 118.037 48.733 117.905C48.481 117.767 48.208 117.698 47.914 117.698C47.614 117.698 47.338 117.767 47.086 117.905C46.84 118.037 46.642 118.241 46.492 118.517C46.342 118.793 46.267 119.129 46.267 119.525C46.267 119.927 46.339 120.266 46.483 120.542C46.633 120.818 46.831 121.025 47.077 121.163C47.323 121.295 47.593 121.361 47.887 121.361ZM57.4238 116.978C57.8078 116.978 58.1498 117.059 58.4498 117.221C58.7498 117.377 58.9868 117.614 59.1608 117.932C59.3348 118.25 59.4218 118.637 59.4218 119.093V122H58.6118V119.21C58.6118 118.718 58.4888 118.343 58.2428 118.085C58.0028 117.821 57.6758 117.689 57.2618 117.689C56.8358 117.689 56.4968 117.827 56.2448 118.103C55.9928 118.373 55.8668 118.766 55.8668 119.282V122H55.0568V119.21C55.0568 118.718 54.9338 118.343 54.6878 118.085C54.4478 117.821 54.1208 117.689 53.7068 117.689C53.2808 117.689 52.9418 117.827 52.6898 118.103C52.4378 118.373 52.3118 118.766 52.3118 119.282V122H51.4928V117.068H52.3118V117.779C52.4738 117.521 52.6898 117.323 52.9598 117.185C53.2358 117.047 53.5388 116.978 53.8688 116.978C54.2828 116.978 54.6488 117.071 54.9668 117.257C55.2848 117.443 55.5218 117.716 55.6778 118.076C55.8158 117.728 56.0438 117.458 56.3618 117.266C56.6798 117.074 57.0338 116.978 57.4238 116.978ZM65.2653 119.345C65.2653 119.501 65.2563 119.666 65.2383 119.84H61.2963C61.3263 120.326 61.4913 120.707 61.7913 120.983C62.0973 121.253 62.4663 121.388 62.8983 121.388C63.2523 121.388 63.5463 121.307 63.7803 121.145C64.0203 120.977 64.1883 120.755 64.2843 120.479H65.1663C65.0343 120.953 64.7703 121.34 64.3743 121.64C63.9783 121.934 63.4863 122.081 62.8983 122.081C62.4303 122.081 62.0103 121.976 61.6383 121.766C61.2723 121.556 60.9843 121.259 60.7743 120.875C60.5643 120.485 60.4593 120.035 60.4593 119.525C60.4593 119.015 60.5613 118.568 60.7653 118.184C60.9693 117.8 61.2543 117.506 61.6203 117.302C61.9923 117.092 62.4183 116.987 62.8983 116.987C63.3663 116.987 63.7803 117.089 64.1403 117.293C64.5003 117.497 64.7763 117.779 64.9683 118.139C65.1663 118.493 65.2653 118.895 65.2653 119.345ZM64.4193 119.174C64.4193 118.862 64.3503 118.595 64.2123 118.373C64.0743 118.145 63.8853 117.974 63.6453 117.86C63.4113 117.74 63.1503 117.68 62.8623 117.68C62.4483 117.68 62.0943 117.812 61.8003 118.076C61.5123 118.34 61.3473 118.706 61.3053 119.174H64.4193Z" fill="#666666"/>
    <g clip-path="url(#clip0_2228_29813)">
        <path d="M77.75 82C77.75 79.7909 79.5409 78 81.75 78H122.75C124.959 78 126.75 79.7909 126.75 82V138H77.75V82Z" fill="#D9D9D9"/>
        <path d="M90.326 123.084C89.774 123.084 89.278 122.988 88.838 122.796C88.406 122.596 88.066 122.324 87.818 121.98C87.57 121.628 87.442 121.224 87.434 120.768H88.598C88.638 121.16 88.798 121.492 89.078 121.764C89.366 122.028 89.782 122.16 90.326 122.16C90.846 122.16 91.254 122.032 91.55 121.776C91.854 121.512 92.006 121.176 92.006 120.768C92.006 120.448 91.918 120.188 91.742 119.988C91.566 119.788 91.346 119.636 91.082 119.532C90.818 119.428 90.462 119.316 90.014 119.196C89.462 119.052 89.018 118.908 88.682 118.764C88.354 118.62 88.07 118.396 87.83 118.092C87.598 117.78 87.482 117.364 87.482 116.844C87.482 116.388 87.598 115.984 87.83 115.632C88.062 115.28 88.386 115.008 88.802 114.816C89.226 114.624 89.71 114.528 90.254 114.528C91.038 114.528 91.678 114.724 92.174 115.116C92.678 115.508 92.962 116.028 93.026 116.676H91.826C91.786 116.356 91.618 116.076 91.322 115.836C91.026 115.588 90.634 115.464 90.146 115.464C89.69 115.464 89.318 115.584 89.03 115.824C88.742 116.056 88.598 116.384 88.598 116.808C88.598 117.112 88.682 117.36 88.85 117.552C89.026 117.744 89.238 117.892 89.486 117.996C89.742 118.092 90.098 118.204 90.554 118.332C91.106 118.484 91.55 118.636 91.886 118.788C92.222 118.932 92.51 119.16 92.75 119.472C92.99 119.776 93.11 120.192 93.11 120.72C93.11 121.128 93.002 121.512 92.786 121.872C92.57 122.232 92.25 122.524 91.826 122.748C91.402 122.972 90.902 123.084 90.326 123.084ZM95.281 115.356C95.073 115.356 94.897 115.284 94.753 115.14C94.609 114.996 94.537 114.82 94.537 114.612C94.537 114.404 94.609 114.228 94.753 114.084C94.897 113.94 95.073 113.868 95.281 113.868C95.481 113.868 95.649 113.94 95.785 114.084C95.929 114.228 96.001 114.404 96.001 114.612C96.001 114.82 95.929 114.996 95.785 115.14C95.649 115.284 95.481 115.356 95.281 115.356ZM95.809 116.424V123H94.717V116.424H95.809ZM98.7621 114.12V123H97.6701V114.12H98.7621ZM103.071 121.992L105.111 116.424H106.275L103.695 123H102.423L99.8432 116.424H101.019L103.071 121.992ZM113.35 119.46C113.35 119.668 113.338 119.888 113.314 120.12H108.058C108.098 120.768 108.318 121.276 108.718 121.644C109.126 122.004 109.618 122.184 110.194 122.184C110.666 122.184 111.058 122.076 111.37 121.86C111.69 121.636 111.914 121.34 112.042 120.972H113.218C113.042 121.604 112.69 122.12 112.162 122.52C111.634 122.912 110.978 123.108 110.194 123.108C109.57 123.108 109.01 122.968 108.514 122.688C108.026 122.408 107.642 122.012 107.362 121.5C107.082 120.98 106.942 120.38 106.942 119.7C106.942 119.02 107.078 118.424 107.35 117.912C107.622 117.4 108.002 117.008 108.49 116.736C108.986 116.456 109.554 116.316 110.194 116.316C110.818 116.316 111.37 116.452 111.85 116.724C112.33 116.996 112.698 117.372 112.954 117.852C113.218 118.324 113.35 118.86 113.35 119.46ZM112.222 119.232C112.222 118.816 112.13 118.46 111.946 118.164C111.762 117.86 111.51 117.632 111.19 117.48C110.878 117.32 110.53 117.24 110.146 117.24C109.594 117.24 109.122 117.416 108.73 117.768C108.346 118.12 108.126 118.608 108.07 119.232H112.222ZM115.883 117.492C116.075 117.116 116.347 116.824 116.699 116.616C117.059 116.408 117.495 116.304 118.007 116.304V117.432H117.719C116.495 117.432 115.883 118.096 115.883 119.424V123H114.791V116.424H115.883V117.492Z" fill="#666666"/>
    </g>
    <g clip-path="url(#clip1_2228_29813)">
        <path d="M173.761 39C173.761 46.5996 167.6 52.7604 160.001 52.7604C152.401 52.7604 146.24 46.5996 146.24 39C146.24 31.4004 152.401 25.2396 160.001 25.2396C167.6 25.2396 173.761 31.4004 173.761 39Z" stroke="#C59B5E" stroke-width="2.4792"/>
        <path d="M160.299 50.4C166.43 50.4 171.399 45.4303 171.399 39.3C171.399 33.1696 166.43 28.2 160.299 28.2C154.169 28.2 149.199 33.1696 149.199 39.3C149.199 45.4303 154.169 50.4 160.299 50.4Z" fill="#C59B5E"/>
        <path d="M160.395 34.2C160.976 34.2 161.547 34.2798 162.109 34.4388C162.671 34.5984 162.993 34.6782 163.077 34.6782C163.291 34.6782 163.443 34.6368 163.531 34.5552C163.624 34.473 163.702 34.3548 163.765 34.2H164.095L164.212 37.3224H163.868C163.56 36.6024 163.242 36.0666 162.915 35.7144C162.324 35.0964 161.554 34.7868 160.607 34.7868C159.645 34.7868 158.797 35.1492 158.064 35.8734C157.336 36.5934 156.972 37.7814 156.972 39.4374C156.972 40.8042 157.336 41.8716 158.064 42.6396C158.792 43.4076 159.691 43.7916 160.761 43.7916C160.942 43.7916 161.154 43.7748 161.398 43.7406C161.635 43.7086 161.868 43.6554 162.094 43.5816C162.451 43.4652 162.673 43.3667 162.761 43.2845C162.849 43.1975 162.893 43.0722 162.893 42.9078V40.539C162.893 39.969 162.81 39.6138 162.644 39.474C162.483 39.3336 162.126 39.2472 161.574 39.213V38.9376H165.399V39.2136C165.028 39.2376 164.781 39.2976 164.659 39.3942C164.454 39.549 164.352 39.8676 164.352 40.3506V43.2702C164.352 43.4442 163.919 43.6758 163.054 43.9656C162.195 44.2548 161.367 44.4 160.57 44.4C159.105 44.4 157.869 43.9776 156.862 43.1322C155.754 42.2004 155.199 40.95 155.199 39.3798C155.199 37.9986 155.641 36.8154 156.525 35.8302C157.497 34.7436 158.787 34.2 160.395 34.2Z" fill="white"/>
    </g>
    <g clip-path="url(#clip2_2228_29813)">
        <path d="M135.5 67C135.5 64.7909 137.291 63 139.5 63H180.5C182.709 63 184.5 64.7909 184.5 67V138H135.5V67Z" fill="#C59B5E"/>
        <path d="M152.16 117.144C151.968 116.792 151.704 116.524 151.368 116.34C151.032 116.156 150.64 116.064 150.192 116.064C149.696 116.064 149.256 116.176 148.872 116.4C148.488 116.624 148.188 116.944 147.972 117.36C147.756 117.776 147.648 118.256 147.648 118.8C147.648 119.36 147.756 119.848 147.972 120.264C148.196 120.68 148.504 121 148.896 121.224C149.288 121.448 149.744 121.56 150.264 121.56C150.904 121.56 151.428 121.392 151.836 121.056C152.244 120.712 152.512 120.236 152.64 119.628H149.76V118.344H154.296V119.808C154.184 120.392 153.944 120.932 153.576 121.428C153.208 121.924 152.732 122.324 152.148 122.628C151.572 122.924 150.924 123.072 150.204 123.072C149.396 123.072 148.664 122.892 148.008 122.532C147.36 122.164 146.848 121.656 146.472 121.008C146.104 120.36 145.92 119.624 145.92 118.8C145.92 117.976 146.104 117.24 146.472 116.592C146.848 115.936 147.36 115.428 148.008 115.068C148.664 114.7 149.392 114.516 150.192 114.516C151.136 114.516 151.956 114.748 152.652 115.212C153.348 115.668 153.828 116.312 154.092 117.144H152.16ZM158.491 123.108C157.851 123.108 157.275 122.968 156.763 122.688C156.251 122.4 155.847 121.996 155.551 121.476C155.263 120.956 155.119 120.356 155.119 119.676C155.119 118.996 155.267 118.396 155.563 117.876C155.867 117.356 156.279 116.956 156.799 116.676C157.319 116.388 157.899 116.244 158.539 116.244C159.179 116.244 159.759 116.388 160.279 116.676C160.799 116.956 161.207 117.356 161.503 117.876C161.807 118.396 161.959 118.996 161.959 119.676C161.959 120.356 161.803 120.956 161.491 121.476C161.187 121.996 160.771 122.4 160.243 122.688C159.723 122.968 159.139 123.108 158.491 123.108ZM158.491 121.644C158.795 121.644 159.079 121.572 159.343 121.428C159.615 121.276 159.831 121.052 159.991 120.756C160.151 120.46 160.231 120.1 160.231 119.676C160.231 119.044 160.063 118.56 159.727 118.224C159.399 117.88 158.995 117.708 158.515 117.708C158.035 117.708 157.631 117.88 157.303 118.224C156.983 118.56 156.823 119.044 156.823 119.676C156.823 120.308 156.979 120.796 157.291 121.14C157.611 121.476 158.011 121.644 158.491 121.644ZM164.871 114.12V123H163.191V114.12H164.871ZM166.099 119.652C166.099 118.98 166.231 118.384 166.495 117.864C166.767 117.344 167.135 116.944 167.599 116.664C168.063 116.384 168.579 116.244 169.147 116.244C169.579 116.244 169.991 116.34 170.383 116.532C170.775 116.716 171.087 116.964 171.319 117.276V114.12H173.023V123H171.319V122.016C171.111 122.344 170.819 122.608 170.443 122.808C170.067 123.008 169.631 123.108 169.135 123.108C168.575 123.108 168.063 122.964 167.599 122.676C167.135 122.388 166.767 121.984 166.495 121.464C166.231 120.936 166.099 120.332 166.099 119.652ZM171.331 119.676C171.331 119.268 171.251 118.92 171.091 118.632C170.931 118.336 170.715 118.112 170.443 117.96C170.171 117.8 169.879 117.72 169.567 117.72C169.255 117.72 168.967 117.796 168.703 117.948C168.439 118.1 168.223 118.324 168.055 118.62C167.895 118.908 167.815 119.252 167.815 119.652C167.815 120.052 167.895 120.404 168.055 120.708C168.223 121.004 168.439 121.232 168.703 121.392C168.975 121.552 169.263 121.632 169.567 121.632C169.879 121.632 170.171 121.556 170.443 121.404C170.715 121.244 170.931 121.02 171.091 120.732C171.251 120.436 171.331 120.084 171.331 119.676Z" fill="white"/>
    </g>
    <g clip-path="url(#clip3_2228_29813)">
        <path d="M193.25 52C193.25 49.7909 195.041 48 197.25 48H238.25C240.459 48 242.25 49.7909 242.25 52V138H193.25V52Z" fill="#D9D9D9"/>
        <path d="M202.137 117.563C202.137 118.085 201.957 118.52 201.597 118.868C201.243 119.21 200.7 119.381 199.968 119.381H198.762V122H197.943V115.727H199.968C200.676 115.727 201.213 115.898 201.579 116.24C201.951 116.582 202.137 117.023 202.137 117.563ZM199.968 118.706C200.424 118.706 200.76 118.607 200.976 118.409C201.192 118.211 201.3 117.929 201.3 117.563C201.3 116.789 200.856 116.402 199.968 116.402H198.762V118.706H199.968ZM203.974 115.34V122H203.155V115.34H203.974ZM205.064 119.516C205.064 119.012 205.166 118.571 205.37 118.193C205.574 117.809 205.853 117.512 206.207 117.302C206.567 117.092 206.966 116.987 207.404 116.987C207.836 116.987 208.211 117.08 208.529 117.266C208.847 117.452 209.084 117.686 209.24 117.968V117.068H210.068V122H209.24V121.082C209.078 121.37 208.835 121.61 208.511 121.802C208.193 121.988 207.821 122.081 207.395 122.081C206.957 122.081 206.561 121.973 206.207 121.757C205.853 121.541 205.574 121.238 205.37 120.848C205.166 120.458 205.064 120.014 205.064 119.516ZM209.24 119.525C209.24 119.153 209.165 118.829 209.015 118.553C208.865 118.277 208.661 118.067 208.403 117.923C208.151 117.773 207.872 117.698 207.566 117.698C207.26 117.698 206.981 117.77 206.729 117.914C206.477 118.058 206.276 118.268 206.126 118.544C205.976 118.82 205.901 119.144 205.901 119.516C205.901 119.894 205.976 120.224 206.126 120.506C206.276 120.782 206.477 120.995 206.729 121.145C206.981 121.289 207.26 121.361 207.566 121.361C207.872 121.361 208.151 121.289 208.403 121.145C208.661 120.995 208.865 120.782 209.015 120.506C209.165 120.224 209.24 119.897 209.24 119.525ZM212.451 117.743V120.65C212.451 120.89 212.502 121.061 212.604 121.163C212.706 121.259 212.883 121.307 213.135 121.307H213.738V122H213C212.544 122 212.202 121.895 211.974 121.685C211.746 121.475 211.632 121.13 211.632 120.65V117.743H210.993V117.068H211.632V115.826H212.451V117.068H213.738V117.743H212.451ZM215.153 116.267C214.997 116.267 214.865 116.213 214.757 116.105C214.649 115.997 214.595 115.865 214.595 115.709C214.595 115.553 214.649 115.421 214.757 115.313C214.865 115.205 214.997 115.151 215.153 115.151C215.303 115.151 215.429 115.205 215.531 115.313C215.639 115.421 215.693 115.553 215.693 115.709C215.693 115.865 215.639 115.997 215.531 116.105C215.429 116.213 215.303 116.267 215.153 116.267ZM215.549 117.068V122H214.73V117.068H215.549ZM219.348 116.978C219.948 116.978 220.434 117.161 220.806 117.527C221.178 117.887 221.364 118.409 221.364 119.093V122H220.554V119.21C220.554 118.718 220.431 118.343 220.185 118.085C219.939 117.821 219.603 117.689 219.177 117.689C218.745 117.689 218.4 117.824 218.142 118.094C217.89 118.364 217.764 118.757 217.764 119.273V122H216.945V117.068H217.764V117.77C217.926 117.518 218.145 117.323 218.421 117.185C218.703 117.047 219.012 116.978 219.348 116.978ZM227.076 117.068V122H226.257V121.271C226.101 121.523 225.882 121.721 225.6 121.865C225.324 122.003 225.018 122.072 224.682 122.072C224.298 122.072 223.953 121.994 223.647 121.838C223.341 121.676 223.098 121.436 222.918 121.118C222.744 120.8 222.657 120.413 222.657 119.957V117.068H223.467V119.849C223.467 120.335 223.59 120.71 223.836 120.974C224.082 121.232 224.418 121.361 224.844 121.361C225.282 121.361 225.627 121.226 225.879 120.956C226.131 120.686 226.257 120.293 226.257 119.777V117.068H227.076ZM234.39 116.978C234.774 116.978 235.116 117.059 235.416 117.221C235.716 117.377 235.953 117.614 236.127 117.932C236.301 118.25 236.388 118.637 236.388 119.093V122H235.578V119.21C235.578 118.718 235.455 118.343 235.209 118.085C234.969 117.821 234.642 117.689 234.228 117.689C233.802 117.689 233.463 117.827 233.211 118.103C232.959 118.373 232.833 118.766 232.833 119.282V122H232.023V119.21C232.023 118.718 231.9 118.343 231.654 118.085C231.414 117.821 231.087 117.689 230.673 117.689C230.247 117.689 229.908 117.827 229.656 118.103C229.404 118.373 229.278 118.766 229.278 119.282V122H228.459V117.068H229.278V117.779C229.44 117.521 229.656 117.323 229.926 117.185C230.202 117.047 230.505 116.978 230.835 116.978C231.249 116.978 231.615 117.071 231.933 117.257C232.251 117.443 232.488 117.716 232.644 118.076C232.782 117.728 233.01 117.458 233.328 117.266C233.646 117.074 234 116.978 234.39 116.978Z" fill="#666666"/>
    </g>
    <g clip-path="url(#clip4_2228_29813)">
        <path d="M251 32C251 29.7909 252.791 28 255 28H296C298.209 28 300 29.7909 300 32V138H251V32Z" fill="#D9D9D9"/>
        <path d="M273.836 114.636L270.68 123H269.42L266.264 114.636H267.428L270.056 121.848L272.684 114.636H273.836ZM275.597 115.356C275.389 115.356 275.213 115.284 275.069 115.14C274.925 114.996 274.853 114.82 274.853 114.612C274.853 114.404 274.925 114.228 275.069 114.084C275.213 113.94 275.389 113.868 275.597 113.868C275.797 113.868 275.965 113.94 276.101 114.084C276.245 114.228 276.317 114.404 276.317 114.612C276.317 114.82 276.245 114.996 276.101 115.14C275.965 115.284 275.797 115.356 275.597 115.356ZM276.125 116.424V123H275.033V116.424H276.125ZM279.079 117.636C279.295 117.26 279.615 116.948 280.039 116.7C280.471 116.444 280.971 116.316 281.539 116.316C282.123 116.316 282.651 116.456 283.122 116.736C283.602 117.016 283.979 117.412 284.251 117.924C284.523 118.428 284.659 119.016 284.659 119.688C284.659 120.352 284.523 120.944 284.251 121.464C283.979 121.984 283.602 122.388 283.122 122.676C282.651 122.964 282.123 123.108 281.539 123.108C280.979 123.108 280.483 122.984 280.051 122.736C279.627 122.48 279.303 122.164 279.079 121.788V126.12H277.987V116.424H279.079V117.636ZM283.543 119.688C283.543 119.192 283.443 118.76 283.243 118.392C283.043 118.024 282.771 117.744 282.427 117.552C282.091 117.36 281.719 117.264 281.311 117.264C280.911 117.264 280.539 117.364 280.195 117.564C279.859 117.756 279.587 118.04 279.379 118.416C279.179 118.784 279.079 119.212 279.079 119.7C279.079 120.196 279.179 120.632 279.379 121.008C279.587 121.376 279.859 121.66 280.195 121.86C280.539 122.052 280.911 122.148 281.311 122.148C281.719 122.148 282.091 122.052 282.427 121.86C282.771 121.66 283.043 121.376 283.243 121.008C283.443 120.632 283.543 120.192 283.543 119.688Z" fill="#666666"/>
    </g>
    <defs>
        <clipPath id="clip0_2228_29813">
            <rect width="49" height="60" fill="white" transform="translate(77.75 78)"/>
        </clipPath>
        <clipPath id="clip1_2228_29813">
            <rect width="30" height="30" fill="white" transform="translate(145 24)"/>
        </clipPath>
        <clipPath id="clip2_2228_29813">
            <rect width="49" height="75" fill="white" transform="translate(135.5 63)"/>
        </clipPath>
        <clipPath id="clip3_2228_29813">
            <rect width="49" height="90" fill="white" transform="translate(193.25 48)"/>
        </clipPath>
        <clipPath id="clip4_2228_29813">
            <rect width="49" height="110" fill="white" transform="translate(251 28)"/>
        </clipPath>
    </defs>
</svg>
