<svg width="320" height="153" viewBox="0 0 320 153" fill="none" xmlns="http://www.w3.org/2000/svg">
    <rect width="320" height="153" fill="#F1F1F8"/>
    <path d="M20 107C20 104.791 21.7909 103 24 103H65C67.2091 103 69 104.791 69 107V153H20V107Z" fill="#D9D9D9"/>
    <path d="M31.577 130.727L29.759 137H28.841L27.383 131.951L25.871 137L24.962 137.009L23.207 130.727H24.08L25.448 136.046L26.96 130.727H27.878L29.318 136.028L30.695 130.727H31.577ZM36.9733 134.345C36.9733 134.501 36.9643 134.666 36.9463 134.84H33.0043C33.0343 135.326 33.1993 135.707 33.4993 135.983C33.8053 136.253 34.1743 136.388 34.6063 136.388C34.9603 136.388 35.2543 136.307 35.4883 136.145C35.7283 135.977 35.8963 135.755 35.9923 135.479H36.8743C36.7423 135.953 36.4783 136.34 36.0823 136.64C35.6863 136.934 35.1943 137.081 34.6063 137.081C34.1383 137.081 33.7183 136.976 33.3463 136.766C32.9803 136.556 32.6923 136.259 32.4823 135.875C32.2723 135.485 32.1673 135.035 32.1673 134.525C32.1673 134.015 32.2693 133.568 32.4733 133.184C32.6773 132.8 32.9623 132.506 33.3283 132.302C33.7003 132.092 34.1263 131.987 34.6063 131.987C35.0743 131.987 35.4883 132.089 35.8483 132.293C36.2083 132.497 36.4843 132.779 36.6763 133.139C36.8743 133.493 36.9733 133.895 36.9733 134.345ZM36.1273 134.174C36.1273 133.862 36.0583 133.595 35.9203 133.373C35.7823 133.145 35.5933 132.974 35.3533 132.86C35.1193 132.74 34.8583 132.68 34.5703 132.68C34.1563 132.68 33.8023 132.812 33.5083 133.076C33.2203 133.34 33.0553 133.706 33.0133 134.174H36.1273ZM38.8733 130.34V137H38.0543V130.34H38.8733ZM39.9632 134.525C39.9632 134.015 40.0652 133.571 40.2692 133.193C40.4732 132.809 40.7552 132.512 41.1152 132.302C41.4812 132.092 41.8982 131.987 42.3662 131.987C42.9722 131.987 43.4702 132.134 43.8602 132.428C44.2562 132.722 44.5172 133.13 44.6432 133.652H43.7612C43.6772 133.352 43.5122 133.115 43.2662 132.941C43.0262 132.767 42.7262 132.68 42.3662 132.68C41.8982 132.68 41.5202 132.842 41.2322 133.166C40.9442 133.484 40.8002 133.937 40.8002 134.525C40.8002 135.119 40.9442 135.578 41.2322 135.902C41.5202 136.226 41.8982 136.388 42.3662 136.388C42.7262 136.388 43.0262 136.304 43.2662 136.136C43.5062 135.968 43.6712 135.728 43.7612 135.416H44.6432C44.5112 135.92 44.2472 136.325 43.8512 136.631C43.4552 136.931 42.9602 137.081 42.3662 137.081C41.8982 137.081 41.4812 136.976 41.1152 136.766C40.7552 136.556 40.4732 136.259 40.2692 135.875C40.0652 135.491 39.9632 135.041 39.9632 134.525ZM47.887 137.081C47.425 137.081 47.005 136.976 46.627 136.766C46.255 136.556 45.961 136.259 45.745 135.875C45.535 135.485 45.43 135.035 45.43 134.525C45.43 134.021 45.538 133.577 45.754 133.193C45.976 132.803 46.276 132.506 46.654 132.302C47.032 132.092 47.455 131.987 47.923 131.987C48.391 131.987 48.814 132.092 49.192 132.302C49.57 132.506 49.867 132.8 50.083 133.184C50.305 133.568 50.416 134.015 50.416 134.525C50.416 135.035 50.302 135.485 50.074 135.875C49.852 136.259 49.549 136.556 49.165 136.766C48.781 136.976 48.355 137.081 47.887 137.081ZM47.887 136.361C48.181 136.361 48.457 136.292 48.715 136.154C48.973 136.016 49.18 135.809 49.336 135.533C49.498 135.257 49.579 134.921 49.579 134.525C49.579 134.129 49.501 133.793 49.345 133.517C49.189 133.241 48.985 133.037 48.733 132.905C48.481 132.767 48.208 132.698 47.914 132.698C47.614 132.698 47.338 132.767 47.086 132.905C46.84 133.037 46.642 133.241 46.492 133.517C46.342 133.793 46.267 134.129 46.267 134.525C46.267 134.927 46.339 135.266 46.483 135.542C46.633 135.818 46.831 136.025 47.077 136.163C47.323 136.295 47.593 136.361 47.887 136.361ZM57.4238 131.978C57.8078 131.978 58.1498 132.059 58.4498 132.221C58.7498 132.377 58.9868 132.614 59.1608 132.932C59.3348 133.25 59.4218 133.637 59.4218 134.093V137H58.6118V134.21C58.6118 133.718 58.4888 133.343 58.2428 133.085C58.0028 132.821 57.6758 132.689 57.2618 132.689C56.8358 132.689 56.4968 132.827 56.2448 133.103C55.9928 133.373 55.8668 133.766 55.8668 134.282V137H55.0568V134.21C55.0568 133.718 54.9338 133.343 54.6878 133.085C54.4478 132.821 54.1208 132.689 53.7068 132.689C53.2808 132.689 52.9418 132.827 52.6898 133.103C52.4378 133.373 52.3118 133.766 52.3118 134.282V137H51.4928V132.068H52.3118V132.779C52.4738 132.521 52.6898 132.323 52.9598 132.185C53.2358 132.047 53.5388 131.978 53.8688 131.978C54.2828 131.978 54.6488 132.071 54.9668 132.257C55.2848 132.443 55.5218 132.716 55.6778 133.076C55.8158 132.728 56.0438 132.458 56.3618 132.266C56.6798 132.074 57.0338 131.978 57.4238 131.978ZM65.2653 134.345C65.2653 134.501 65.2563 134.666 65.2383 134.84H61.2963C61.3263 135.326 61.4913 135.707 61.7913 135.983C62.0973 136.253 62.4663 136.388 62.8983 136.388C63.2523 136.388 63.5463 136.307 63.7803 136.145C64.0203 135.977 64.1883 135.755 64.2843 135.479H65.1663C65.0343 135.953 64.7703 136.34 64.3743 136.64C63.9783 136.934 63.4863 137.081 62.8983 137.081C62.4303 137.081 62.0103 136.976 61.6383 136.766C61.2723 136.556 60.9843 136.259 60.7743 135.875C60.5643 135.485 60.4593 135.035 60.4593 134.525C60.4593 134.015 60.5613 133.568 60.7653 133.184C60.9693 132.8 61.2543 132.506 61.6203 132.302C61.9923 132.092 62.4183 131.987 62.8983 131.987C63.3663 131.987 63.7803 132.089 64.1403 132.293C64.5003 132.497 64.7763 132.779 64.9683 133.139C65.1663 133.493 65.2653 133.895 65.2653 134.345ZM64.4193 134.174C64.4193 133.862 64.3503 133.595 64.2123 133.373C64.0743 133.145 63.8853 132.974 63.6453 132.86C63.4113 132.74 63.1503 132.68 62.8623 132.68C62.4483 132.68 62.0943 132.812 61.8003 133.076C61.5123 133.34 61.3473 133.706 61.3053 134.174H64.4193Z" fill="#666666"/>
    <g clip-path="url(#clip0_2228_29846)">
        <path d="M77.75 97C77.75 94.7909 79.5409 93 81.75 93H122.75C124.959 93 126.75 94.7909 126.75 97V153H77.75V97Z" fill="#D9D9D9"/>
        <path d="M90.326 138.084C89.774 138.084 89.278 137.988 88.838 137.796C88.406 137.596 88.066 137.324 87.818 136.98C87.57 136.628 87.442 136.224 87.434 135.768H88.598C88.638 136.16 88.798 136.492 89.078 136.764C89.366 137.028 89.782 137.16 90.326 137.16C90.846 137.16 91.254 137.032 91.55 136.776C91.854 136.512 92.006 136.176 92.006 135.768C92.006 135.448 91.918 135.188 91.742 134.988C91.566 134.788 91.346 134.636 91.082 134.532C90.818 134.428 90.462 134.316 90.014 134.196C89.462 134.052 89.018 133.908 88.682 133.764C88.354 133.62 88.07 133.396 87.83 133.092C87.598 132.78 87.482 132.364 87.482 131.844C87.482 131.388 87.598 130.984 87.83 130.632C88.062 130.28 88.386 130.008 88.802 129.816C89.226 129.624 89.71 129.528 90.254 129.528C91.038 129.528 91.678 129.724 92.174 130.116C92.678 130.508 92.962 131.028 93.026 131.676H91.826C91.786 131.356 91.618 131.076 91.322 130.836C91.026 130.588 90.634 130.464 90.146 130.464C89.69 130.464 89.318 130.584 89.03 130.824C88.742 131.056 88.598 131.384 88.598 131.808C88.598 132.112 88.682 132.36 88.85 132.552C89.026 132.744 89.238 132.892 89.486 132.996C89.742 133.092 90.098 133.204 90.554 133.332C91.106 133.484 91.55 133.636 91.886 133.788C92.222 133.932 92.51 134.16 92.75 134.472C92.99 134.776 93.11 135.192 93.11 135.72C93.11 136.128 93.002 136.512 92.786 136.872C92.57 137.232 92.25 137.524 91.826 137.748C91.402 137.972 90.902 138.084 90.326 138.084ZM95.281 130.356C95.073 130.356 94.897 130.284 94.753 130.14C94.609 129.996 94.537 129.82 94.537 129.612C94.537 129.404 94.609 129.228 94.753 129.084C94.897 128.94 95.073 128.868 95.281 128.868C95.481 128.868 95.649 128.94 95.785 129.084C95.929 129.228 96.001 129.404 96.001 129.612C96.001 129.82 95.929 129.996 95.785 130.14C95.649 130.284 95.481 130.356 95.281 130.356ZM95.809 131.424V138H94.717V131.424H95.809ZM98.7621 129.12V138H97.6701V129.12H98.7621ZM103.071 136.992L105.111 131.424H106.275L103.695 138H102.423L99.8432 131.424H101.019L103.071 136.992ZM113.35 134.46C113.35 134.668 113.338 134.888 113.314 135.12H108.058C108.098 135.768 108.318 136.276 108.718 136.644C109.126 137.004 109.618 137.184 110.194 137.184C110.666 137.184 111.058 137.076 111.37 136.86C111.69 136.636 111.914 136.34 112.042 135.972H113.218C113.042 136.604 112.69 137.12 112.162 137.52C111.634 137.912 110.978 138.108 110.194 138.108C109.57 138.108 109.01 137.968 108.514 137.688C108.026 137.408 107.642 137.012 107.362 136.5C107.082 135.98 106.942 135.38 106.942 134.7C106.942 134.02 107.078 133.424 107.35 132.912C107.622 132.4 108.002 132.008 108.49 131.736C108.986 131.456 109.554 131.316 110.194 131.316C110.818 131.316 111.37 131.452 111.85 131.724C112.33 131.996 112.698 132.372 112.954 132.852C113.218 133.324 113.35 133.86 113.35 134.46ZM112.222 134.232C112.222 133.816 112.13 133.46 111.946 133.164C111.762 132.86 111.51 132.632 111.19 132.48C110.878 132.32 110.53 132.24 110.146 132.24C109.594 132.24 109.122 132.416 108.73 132.768C108.346 133.12 108.126 133.608 108.07 134.232H112.222ZM115.883 132.492C116.075 132.116 116.347 131.824 116.699 131.616C117.059 131.408 117.495 131.304 118.007 131.304V132.432H117.719C116.495 132.432 115.883 133.096 115.883 134.424V138H114.791V131.424H115.883V132.492Z" fill="#666666"/>
    </g>
    <g clip-path="url(#clip1_2228_29846)">
        <path d="M135.5 82C135.5 79.7909 137.291 78 139.5 78H180.5C182.709 78 184.5 79.7909 184.5 82V153H135.5V82Z" fill="#D9D9D9"/>
        <path d="M152.76 132.06C152.528 131.572 152.192 131.196 151.752 130.932C151.312 130.66 150.8 130.524 150.216 130.524C149.632 130.524 149.104 130.66 148.632 130.932C148.168 131.196 147.8 131.58 147.528 132.084C147.264 132.58 147.132 133.156 147.132 133.812C147.132 134.468 147.264 135.044 147.528 135.54C147.8 136.036 148.168 136.42 148.632 136.692C149.104 136.956 149.632 137.088 150.216 137.088C151.032 137.088 151.704 136.844 152.232 136.356C152.76 135.868 153.068 135.208 153.156 134.376H149.82V133.488H154.32V134.328C154.256 135.016 154.04 135.648 153.672 136.224C153.304 136.792 152.82 137.244 152.22 137.58C151.62 137.908 150.952 138.072 150.216 138.072C149.44 138.072 148.732 137.892 148.092 137.532C147.452 137.164 146.944 136.656 146.568 136.008C146.2 135.36 146.016 134.628 146.016 133.812C146.016 132.996 146.2 132.264 146.568 131.616C146.944 130.96 147.452 130.452 148.092 130.092C148.732 129.724 149.44 129.54 150.216 129.54C151.104 129.54 151.888 129.76 152.568 130.2C153.256 130.64 153.756 131.26 154.068 132.06H152.76ZM158.632 138.108C158.016 138.108 157.456 137.968 156.952 137.688C156.456 137.408 156.064 137.012 155.776 136.5C155.496 135.98 155.356 135.38 155.356 134.7C155.356 134.028 155.5 133.436 155.788 132.924C156.084 132.404 156.484 132.008 156.988 131.736C157.492 131.456 158.056 131.316 158.68 131.316C159.304 131.316 159.868 131.456 160.372 131.736C160.876 132.008 161.272 132.4 161.56 132.912C161.856 133.424 162.004 134.02 162.004 134.7C162.004 135.38 161.852 135.98 161.548 136.5C161.252 137.012 160.848 137.408 160.336 137.688C159.824 137.968 159.256 138.108 158.632 138.108ZM158.632 137.148C159.024 137.148 159.392 137.056 159.736 136.872C160.08 136.688 160.356 136.412 160.564 136.044C160.78 135.676 160.888 135.228 160.888 134.7C160.888 134.172 160.784 133.724 160.576 133.356C160.368 132.988 160.096 132.716 159.76 132.54C159.424 132.356 159.06 132.264 158.668 132.264C158.268 132.264 157.9 132.356 157.564 132.54C157.236 132.716 156.972 132.988 156.772 133.356C156.572 133.724 156.472 134.172 156.472 134.7C156.472 135.236 156.568 135.688 156.76 136.056C156.96 136.424 157.224 136.7 157.552 136.884C157.88 137.06 158.24 137.148 158.632 137.148ZM164.532 129.12V138H163.44V129.12H164.532ZM165.985 134.688C165.985 134.016 166.121 133.428 166.393 132.924C166.665 132.412 167.037 132.016 167.509 131.736C167.989 131.456 168.525 131.316 169.117 131.316C169.629 131.316 170.105 131.436 170.545 131.676C170.985 131.908 171.321 132.216 171.553 132.6V129.12H172.657V138H171.553V136.764C171.337 137.156 171.017 137.48 170.593 137.736C170.169 137.984 169.673 138.108 169.105 138.108C168.521 138.108 167.989 137.964 167.509 137.676C167.037 137.388 166.665 136.984 166.393 136.464C166.121 135.944 165.985 135.352 165.985 134.688ZM171.553 134.7C171.553 134.204 171.453 133.772 171.253 133.404C171.053 133.036 170.781 132.756 170.437 132.564C170.101 132.364 169.729 132.264 169.321 132.264C168.913 132.264 168.541 132.36 168.205 132.552C167.869 132.744 167.601 133.024 167.401 133.392C167.201 133.76 167.101 134.192 167.101 134.688C167.101 135.192 167.201 135.632 167.401 136.008C167.601 136.376 167.869 136.66 168.205 136.86C168.541 137.052 168.913 137.148 169.321 137.148C169.729 137.148 170.101 137.052 170.437 136.86C170.781 136.66 171.053 136.376 171.253 136.008C171.453 135.632 171.553 135.196 171.553 134.7Z" fill="#666666"/>
    </g>
    <g clip-path="url(#clip2_2228_29846)">
        <path d="M217.751 52.7604C225.35 52.7604 231.511 46.5997 231.511 39C231.511 31.4004 225.35 25.2396 217.751 25.2396C210.151 25.2396 203.99 31.4004 203.99 39C203.99 46.5997 210.151 52.7604 217.751 52.7604Z" stroke="#3C4767" stroke-width="2.4792"/>
        <path d="M217.751 49.9092C223.776 49.9092 228.66 45.025 228.66 39C228.66 32.975 223.776 28.0908 217.751 28.0908C211.726 28.0908 206.842 32.975 206.842 39C206.842 45.025 211.726 49.9092 217.751 49.9092Z" fill="#3C4767" stroke="#3C4767" stroke-width="0.2478"/>
        <path d="M220.104 36.8676C220.104 35.9568 219.711 35.3322 218.928 34.9932C218.506 34.8096 217.974 34.7172 217.329 34.7172C217.024 34.7172 216.836 34.749 216.762 34.812C216.695 34.8696 216.66 35.0028 216.66 35.211V39.09C216.927 39.114 217.101 39.129 217.184 39.1338C217.266 39.1386 217.346 39.141 217.424 39.141C218.106 39.141 218.644 39.0438 219.036 38.8506C219.748 38.4966 220.104 37.836 220.104 36.8676ZM213.908 43.7388C214.475 43.6854 214.828 43.5744 214.968 43.4046C215.109 43.2306 215.179 42.8358 215.179 42.2208V35.778C215.179 35.2596 215.099 34.9182 214.939 34.7538C214.784 34.5888 214.441 34.485 213.908 34.4418V34.1658H217.83C219.089 34.1658 220.053 34.41 220.721 34.899C221.39 35.388 221.723 36.0318 221.723 36.831C221.723 37.8432 221.354 38.577 220.613 39.0318C219.872 39.4872 218.945 39.7146 217.83 39.7146C217.671 39.7146 217.464 39.7122 217.213 39.7074C217.029 39.6993 216.845 39.6945 216.661 39.693V42.3948C216.661 42.957 216.746 43.3104 216.915 43.4556C217.089 43.6008 217.475 43.6956 218.07 43.7388V44.0076H213.908V43.7388Z" fill="white"/>
    </g>
    <g clip-path="url(#clip3_2228_29846)">
        <path d="M193.25 67C193.25 64.7909 195.041 63 197.25 63H238.25C240.459 63 242.25 64.7909 242.25 67V153H193.25V67Z" fill="#3C4767"/>
        <path d="M202.452 132.662C202.452 132.998 202.371 133.313 202.209 133.607C202.053 133.901 201.804 134.138 201.462 134.318C201.126 134.498 200.7 134.588 200.184 134.588H199.131V137H197.871V130.718H200.184C200.67 130.718 201.084 130.802 201.426 130.97C201.768 131.138 202.023 131.369 202.191 131.663C202.365 131.957 202.452 132.29 202.452 132.662ZM200.13 133.571C200.478 133.571 200.736 133.493 200.904 133.337C201.072 133.175 201.156 132.95 201.156 132.662C201.156 132.05 200.814 131.744 200.13 131.744H199.131V133.571H200.13ZM204.607 130.34V137H203.347V130.34H204.607ZM205.527 134.489C205.527 133.985 205.626 133.538 205.824 133.148C206.028 132.758 206.301 132.458 206.643 132.248C206.991 132.038 207.378 131.933 207.804 131.933C208.176 131.933 208.5 132.008 208.776 132.158C209.058 132.308 209.283 132.497 209.451 132.725V132.014H210.72V137H209.451V136.271C209.289 136.505 209.064 136.7 208.776 136.856C208.494 137.006 208.167 137.081 207.795 137.081C207.375 137.081 206.991 136.973 206.643 136.757C206.301 136.541 206.028 136.238 205.824 135.848C205.626 135.452 205.527 134.999 205.527 134.489ZM209.451 134.507C209.451 134.201 209.391 133.94 209.271 133.724C209.151 133.502 208.989 133.334 208.785 133.22C208.581 133.1 208.362 133.04 208.128 133.04C207.894 133.04 207.678 133.097 207.48 133.211C207.282 133.325 207.12 133.493 206.994 133.715C206.874 133.931 206.814 134.189 206.814 134.489C206.814 134.789 206.874 135.053 206.994 135.281C207.12 135.503 207.282 135.674 207.48 135.794C207.684 135.914 207.9 135.974 208.128 135.974C208.362 135.974 208.581 135.917 208.785 135.803C208.989 135.683 209.151 135.515 209.271 135.299C209.391 135.077 209.451 134.813 209.451 134.507ZM213.418 133.049V135.461C213.418 135.629 213.457 135.752 213.535 135.83C213.619 135.902 213.757 135.938 213.949 135.938H214.534V137H213.742C212.68 137 212.149 136.484 212.149 135.452V133.049H211.555V132.014H212.149V130.781H213.418V132.014H214.534V133.049H213.418ZM216.079 131.42C215.857 131.42 215.671 131.351 215.521 131.213C215.377 131.069 215.305 130.892 215.305 130.682C215.305 130.472 215.377 130.298 215.521 130.16C215.671 130.016 215.857 129.944 216.079 129.944C216.301 129.944 216.484 130.016 216.628 130.16C216.778 130.298 216.853 130.472 216.853 130.682C216.853 130.892 216.778 131.069 216.628 131.213C216.484 131.351 216.301 131.42 216.079 131.42ZM216.7 132.014V137H215.44V132.014H216.7ZM220.708 131.942C221.302 131.942 221.782 132.131 222.148 132.509C222.514 132.881 222.697 133.403 222.697 134.075V137H221.437V134.246C221.437 133.85 221.338 133.547 221.14 133.337C220.942 133.121 220.672 133.013 220.33 133.013C219.982 133.013 219.706 133.121 219.502 133.337C219.304 133.547 219.205 133.85 219.205 134.246V137H217.945V132.014H219.205V132.635C219.373 132.419 219.586 132.251 219.844 132.131C220.108 132.005 220.396 131.942 220.708 131.942ZM228.602 132.014V137H227.333V136.37C227.171 136.586 226.958 136.757 226.694 136.883C226.436 137.003 226.154 137.063 225.848 137.063C225.458 137.063 225.113 136.982 224.813 136.82C224.513 136.652 224.276 136.409 224.102 136.091C223.934 135.767 223.85 135.383 223.85 134.939V132.014H225.11V134.759C225.11 135.155 225.209 135.461 225.407 135.677C225.605 135.887 225.875 135.992 226.217 135.992C226.565 135.992 226.838 135.887 227.036 135.677C227.234 135.461 227.333 135.155 227.333 134.759V132.014H228.602ZM236.038 131.942C236.65 131.942 237.142 132.131 237.514 132.509C237.892 132.881 238.081 133.403 238.081 134.075V137H236.821V134.246C236.821 133.856 236.722 133.559 236.524 133.355C236.326 133.145 236.056 133.04 235.714 133.04C235.372 133.04 235.099 133.145 234.895 133.355C234.697 133.559 234.598 133.856 234.598 134.246V137H233.338V134.246C233.338 133.856 233.239 133.559 233.041 133.355C232.843 133.145 232.573 133.04 232.231 133.04C231.883 133.04 231.607 133.145 231.403 133.355C231.205 133.559 231.106 133.856 231.106 134.246V137H229.846V132.014H231.106V132.617C231.268 132.407 231.475 132.242 231.727 132.122C231.985 132.002 232.267 131.942 232.573 131.942C232.963 131.942 233.311 132.026 233.617 132.194C233.923 132.356 234.16 132.59 234.328 132.896C234.49 132.608 234.724 132.377 235.03 132.203C235.342 132.029 235.678 131.942 236.038 131.942Z" fill="white"/>
    </g>
    <g clip-path="url(#clip4_2228_29846)">
        <path d="M251 47C251 44.7909 252.791 43 255 43H296C298.209 43 300 44.7909 300 47V153H251V47Z" fill="#D9D9D9"/>
        <path d="M273.836 129.636L270.68 138H269.42L266.264 129.636H267.428L270.056 136.848L272.684 129.636H273.836ZM275.597 130.356C275.389 130.356 275.213 130.284 275.069 130.14C274.925 129.996 274.853 129.82 274.853 129.612C274.853 129.404 274.925 129.228 275.069 129.084C275.213 128.94 275.389 128.868 275.597 128.868C275.797 128.868 275.965 128.94 276.101 129.084C276.245 129.228 276.317 129.404 276.317 129.612C276.317 129.82 276.245 129.996 276.101 130.14C275.965 130.284 275.797 130.356 275.597 130.356ZM276.125 131.424V138H275.033V131.424H276.125ZM279.079 132.636C279.295 132.26 279.615 131.948 280.039 131.7C280.471 131.444 280.971 131.316 281.539 131.316C282.123 131.316 282.651 131.456 283.122 131.736C283.602 132.016 283.979 132.412 284.251 132.924C284.523 133.428 284.659 134.016 284.659 134.688C284.659 135.352 284.523 135.944 284.251 136.464C283.979 136.984 283.602 137.388 283.122 137.676C282.651 137.964 282.123 138.108 281.539 138.108C280.979 138.108 280.483 137.984 280.051 137.736C279.627 137.48 279.303 137.164 279.079 136.788V141.12H277.987V131.424H279.079V132.636ZM283.543 134.688C283.543 134.192 283.443 133.76 283.243 133.392C283.043 133.024 282.771 132.744 282.427 132.552C282.091 132.36 281.719 132.264 281.311 132.264C280.911 132.264 280.539 132.364 280.195 132.564C279.859 132.756 279.587 133.04 279.379 133.416C279.179 133.784 279.079 134.212 279.079 134.7C279.079 135.196 279.179 135.632 279.379 136.008C279.587 136.376 279.859 136.66 280.195 136.86C280.539 137.052 280.911 137.148 281.311 137.148C281.719 137.148 282.091 137.052 282.427 136.86C282.771 136.66 283.043 136.376 283.243 136.008C283.443 135.632 283.543 135.192 283.543 134.688Z" fill="#666666"/>
    </g>
    <defs>
        <clipPath id="clip0_2228_29846">
            <rect width="49" height="60" fill="white" transform="translate(77.75 93)"/>
        </clipPath>
        <clipPath id="clip1_2228_29846">
            <rect width="49" height="75" fill="white" transform="translate(135.5 78)"/>
        </clipPath>
        <clipPath id="clip2_2228_29846">
            <rect width="30" height="30" fill="white" transform="translate(202.75 24)"/>
        </clipPath>
        <clipPath id="clip3_2228_29846">
            <rect width="49" height="90" fill="white" transform="translate(193.25 63)"/>
        </clipPath>
        <clipPath id="clip4_2228_29846">
            <rect width="49" height="110" fill="white" transform="translate(251 43)"/>
        </clipPath>
    </defs>
</svg>
